<?xml version="1.0" standalone="no"?>
<!DOCTYPE svg PUBLIC "-//W3C//DTD SVG 1.1//EN" "http://www.w3.org/Graphics/SVG/1.1/DTD/svg11.dtd" >
<svg xmlns="http://www.w3.org/2000/svg" xmlns:xlink="http://www.w3.org/1999/xlink" version="1.1">
<metadata></metadata>
<defs>
<font id="verdanabold" horiz-adv-x="1456" >
<font-face units-per-em="2048" ascent="1639" descent="-409" />
<missing-glyph horiz-adv-x="700" />
<glyph horiz-adv-x="0" />
<glyph horiz-adv-x="682" />
<glyph unicode=" "  horiz-adv-x="700" />
<glyph unicode="&#x09;" horiz-adv-x="700" />
<glyph unicode="&#xa0;" horiz-adv-x="700" />
<glyph unicode="!" horiz-adv-x="824" d="M203 1489h418l-46 -1060h-326zM210 0v264h404v-264h-404z" />
<glyph unicode="&#x22;" horiz-adv-x="1203" d="M167 1556h346l-60 -589h-226zM690 1556h346l-60 -589h-226z" />
<glyph unicode="#" horiz-adv-x="1776" d="M149 354v240h330l77 311h-293v239h353l86 345h245l-86 -345h263l87 345h245l-87 -345h255v-239h-316l-78 -311h282v-240h-342l-91 -354h-241l89 354h-264l-89 -354h-245l90 354h-270zM720 591h269l79 316h-268z" />
<glyph unicode="$" d="M134 960q0 149 136 255t377 128v233h174v-231q92 -4 215.5 -26t194.5 -51v-288h-44q-71 41 -165 68t-201 34v-254l80 -16q226 -44 332.5 -133.5t106.5 -249.5q0 -169 -142 -290t-377 -137v-363h-174v357q-112 1 -259 27t-230 65v292h45q92 -50 211.5 -80t237.5 -39v274 l-97 22q-92 21 -169.5 49t-133.5 74t-87 113.5t-31 166.5zM492 968q0 -47 34 -73t137 -45v232q-66 -5 -118.5 -33.5t-52.5 -80.5zM817 265q66 9 113 38.5t47 86.5q0 58 -53.5 86.5t-106.5 36.5v-248z" />
<glyph unicode="%" horiz-adv-x="2605" d="M143 1032q0 247 117 366.5t339 119.5q224 0 337 -119.5t113 -362.5q0 -249 -115 -369t-335 -120q-227 0 -341.5 121.5t-114.5 363.5zM438 1032q0 -161 37 -217t121 -56t121 56t37 218q0 160 -37 216t-121 56t-121 -56t-37 -217zM780 0l780 1489h269l-780 -1489h-269z M1556 454q0 247 117 366.5t339 119.5q224 0 337 -119.5t113 -362.5q0 -249 -115 -369t-335 -120q-227 0 -341.5 121.5t-114.5 363.5zM1851 454q0 -161 37 -217t121 -56t121 56t37 218q0 160 -37 216t-121 56t-121 -56t-37 -217z" />
<glyph unicode="&#x26;" horiz-adv-x="1766" d="M121 429q0 85 25 148t66 113q39 49 90 84t97 60q-42 31 -80 65t-66 74q-27 38 -42 85t-15 106q0 70 30 131.5t90 110.5q62 51 166.5 82.5t248.5 31.5q121 0 216 -24t160 -68q61 -42 93.5 -101.5t32.5 -128.5q0 -46 -13.5 -101t-49.5 -104q-39 -52 -103 -97t-175 -80 l306 -269v322h373v-111q0 -118 -40 -226t-110 -179l381 -333v-20h-476l-139 126q-100 -79 -220.5 -118t-254.5 -39q-276 0 -433.5 127.5t-157.5 332.5zM512 488q0 -67 26 -115.5t64 -79.5q40 -32 89 -48t96 -16q68 0 120.5 13.5t103.5 52.5l-427 379q-20 -20 -46 -71.5 t-26 -114.5zM574 1168q0 -59 48 -114t125 -113q56 44 84.5 97.5t28.5 115.5q0 52 -16 82.5t-39 46.5q-24 16 -50 20t-42 4q-17 0 -38.5 -4t-47.5 -21q-21 -14 -37 -41.5t-16 -72.5z" />
<glyph unicode="'" horiz-adv-x="680" d="M167 1556h346l-60 -589h-226z" />
<glyph unicode="(" horiz-adv-x="1113" d="M193 572q0 283 92.5 521t284.5 463h377v-29q-81 -73 -154.5 -165.5t-136.5 -216.5q-60 -119 -97.5 -264t-37.5 -309q0 -171 36.5 -310t98.5 -263q60 -118 135.5 -214.5t155.5 -167.5v-29h-377q-192 225 -284.5 463t-92.5 521z" />
<glyph unicode=")" horiz-adv-x="1113" d="M166 -383q80 71 156 167t135 215q62 124 98.5 263t36.5 310q0 164 -37.5 309t-97.5 264q-63 124 -136.5 216.5t-154.5 165.5v29h377q192 -225 284.5 -463t92.5 -521t-92.5 -521t-284.5 -463h-377v29z" />
<glyph unicode="*" d="M204 836l355 209l-354 211l108 167l313 -213l-7 346h212l-8 -347l317 211l111 -166l-358 -208l359 -210l-111 -165l-320 218l11 -355h-213l8 346l-314 -210z" />
<glyph unicode="+" horiz-adv-x="1776" d="M218 528v268h533v528h274v-528h533v-268h-533v-528h-274v528h-533z" />
<glyph unicode="," horiz-adv-x="740" d="M35 -370l197 763h386l-360 -763h-223z" />
<glyph unicode="-" horiz-adv-x="983" d="M110 518v288h763v-288h-763z" />
<glyph unicode="." horiz-adv-x="740" d="M183 0v393h374v-393h-374z" />
<glyph unicode="/" horiz-adv-x="1412" d="M123 -324l790 1880h310l-793 -1880h-307z" />
<glyph unicode="0" d="M112 744q0 194 34 337t108 242q74 98 192 147t282 49q171 0 287 -50.5t190 -150.5q73 -98 106 -241.5t33 -331.5t-34 -336.5t-106 -243.5q-74 -97 -190 -146.5t-286 -49.5q-167 0 -285 50t-191 148q-74 98 -107 243.5t-33 333.5zM499 743q0 -265 54 -382t175 -117 t175 117t54 384q0 270 -53 384.5t-176 114.5t-176 -114.5t-53 -386.5z" />
<glyph unicode="1" d="M266 0v260h314v787h-314v243q72 0 138 8.5t110 29.5q52 25 78 65t30 100h331v-1233h307v-260h-994z" />
<glyph unicode="2" d="M185 0v246q134 97 268.5 206t215.5 188q121 117 172 204t51 172q0 102 -65.5 157.5t-188.5 55.5q-92 0 -193.5 -38t-188.5 -97h-32v331q71 31 209.5 62t277.5 31q280 0 427 -117.5t147 -332.5q0 -141 -70.5 -268t-215.5 -262q-91 -84 -183 -154.5t-131 -98.5h669v-285 h-1169z" />
<glyph unicode="3" d="M140 63v327h39q86 -52 205.5 -90t218.5 -38q58 0 126 9.5t115 41.5q37 25 59 60.5t22 102.5q0 65 -30 100.5t-79 50.5q-49 16 -118 17.5t-128 1.5h-82v266h85q78 0 138 5t102 23q44 19 66 50.5t22 92.5q0 45 -23 72.5t-58 43.5q-39 18 -92 24t-91 6q-94 0 -204 -32.5 t-213 -93.5h-37v323q82 33 223 63.5t286 30.5q141 0 247 -24.5t175 -65.5q82 -49 122 -119t40 -164q0 -124 -77 -221.5t-203 -124.5v-14q51 -7 108 -28t104 -61q49 -42 78 -98t29 -149q0 -105 -41.5 -196t-127.5 -156q-84 -63 -197.5 -96.5t-275.5 -33.5q-185 0 -317.5 29 t-215.5 65z" />
<glyph unicode="4" d="M84 343v282l697 864h391v-874h203v-272h-203v-347h-367v347h-721zM372 615h433v538z" />
<glyph unicode="5" d="M164 59v329h42q91 -54 196 -90t209 -36q63 0 136.5 14.5t116.5 52.5q34 31 51.5 63t17.5 99q0 52 -23.5 89.5t-60.5 60.5q-54 33 -130 43.5t-138 10.5q-90 0 -172.5 -15.5t-144.5 -30.5h-44v840h1059v-285h-698v-243q31 2 78.5 3.5t83.5 1.5q123 0 219.5 -23.5 t166.5 -65.5q91 -55 142 -145.5t51 -227.5q0 -116 -43.5 -215.5t-126.5 -170.5q-92 -76 -211.5 -112.5t-272.5 -36.5q-179 1 -302.5 28.5t-201.5 61.5z" />
<glyph unicode="6" d="M134 664q0 196 45 348t147 269q98 112 254.5 174t372.5 62q73 0 160 -10t113 -15v-293h-38q-27 13 -91.5 29.5t-146.5 16.5q-192 0 -299 -94t-129 -262q77 46 162.5 74.5t184.5 28.5q87 0 161.5 -20t138.5 -64q83 -58 133 -156t50 -245q0 -115 -42 -216t-118 -170 q-81 -74 -187.5 -113t-249.5 -39q-134 0 -244.5 36.5t-189.5 111.5q-91 86 -139 222t-48 325zM518 606q0 -123 24.5 -202.5t65.5 -121.5q28 -31 66 -45.5t82 -14.5q33 0 73 15t68 45q31 34 49.5 80.5t18.5 126.5q0 73 -21 119.5t-58 74.5q-36 28 -85 38.5t-101 10.5 q-44 0 -92 -10t-88 -25q0 -10 -1 -33t-1 -58z" />
<glyph unicode="7" d="M156 1204v285h1167v-296l-674 -1193h-428l700 1204h-765z" />
<glyph unicode="8" d="M99 402q0 112 65.5 198.5t226.5 151.5v6q-130 60 -191 151t-61 211q0 177 164 290t427 113q276 0 432.5 -102.5t156.5 -273.5q0 -106 -66 -189t-202 -141v-6q156 -59 231 -159t75 -236q0 -198 -168.5 -324t-462.5 -126q-165 0 -283 34t-195 94q-76 59 -112.5 138 t-36.5 170zM477 449q0 -104 74.5 -165.5t194.5 -61.5q32 0 75 9.5t74 29.5q36 23 58 54t22 84q0 72 -36 109t-148 85q-33 15 -96 37t-106 38q-43 -39 -77.5 -94.5t-34.5 -124.5zM521 1128q0 -59 33.5 -92t109.5 -66q28 -12 76.5 -29.5t117.5 -39.5q46 54 66 97t20 106 q0 76 -58.5 121t-155.5 45q-36 0 -73.5 -9t-68.5 -26q-29 -17 -48 -44.5t-19 -62.5z" />
<glyph unicode="9" d="M104 979q0 239 166.5 389.5t436.5 150.5q139 0 246.5 -36.5t185.5 -111.5q91 -86 137 -219t46 -324q0 -187 -48 -348t-146 -271q-106 -119 -263 -178.5t-366 -59.5q-74 0 -160 9t-113 16v293h40q30 -14 85.5 -30t151.5 -16q78 0 153 19.5t129 61.5q59 45 97 112.5 t51 162.5q-87 -50 -161.5 -76.5t-185.5 -26.5q-84 0 -160.5 20.5t-139.5 63.5q-83 59 -132.5 155.5t-49.5 243.5zM491 998q0 -70 21 -117.5t58 -75.5q35 -27 82.5 -38t103.5 -11q45 0 98 11.5t82 23.5q0 11 1.5 31.5t1.5 61.5q0 122 -23.5 200.5t-64.5 121.5q-29 32 -67 46 t-80 14q-39 0 -74.5 -13.5t-68.5 -46.5q-31 -32 -50.5 -84t-19.5 -124z" />
<glyph unicode=":" horiz-adv-x="824" d="M225 0v393h374v-393h-374zM225 730v393h374v-393h-374z" />
<glyph unicode=";" horiz-adv-x="824" d="M77 -370l197 763h386l-360 -763h-223zM225 730v393h374v-393h-374z" />
<glyph unicode="&#x3c;" horiz-adv-x="1776" d="M204 548v228l1336 555v-287l-935 -383l935 -381v-287z" />
<glyph unicode="=" horiz-adv-x="1776" d="M249 265v268h1278v-268h-1278zM249 791v268h1278v-268h-1278z" />
<glyph unicode="&#x3e;" horiz-adv-x="1776" d="M236 -7v287l935 382l-935 382v287l1336 -555v-228z" />
<glyph unicode="?" horiz-adv-x="1263" d="M147 1128v305q64 27 197 56.5t270 29.5q247 0 392 -109t145 -285q0 -101 -29.5 -178.5t-83.5 -134.5t-129.5 -102t-170.5 -82v-228h-352v337q71 19 128.5 39t120.5 65q59 40 92.5 93t33.5 120q0 100 -64.5 142.5t-181.5 42.5q-72 0 -162.5 -31t-165.5 -80h-40zM362 0v264 h404v-264h-404z" />
<glyph unicode="@" horiz-adv-x="1974" d="M145 647q0 186 66 344.5t182 276.5q113 116 270.5 183t334.5 67q176 0 328.5 -62t262.5 -174q112 -112 175.5 -268.5t63.5 -350.5q0 -140 -40 -284.5t-100 -239.5h-506l-16 78q-57 -38 -110 -60.5t-153 -22.5q-163 0 -264 134.5t-101 362.5q0 122 34 213.5t93 159.5 q55 64 133 100t155 36q66 0 117 -24.5t79 -51.5v62h232v-816h170q36 79 53.5 171.5t17.5 177.5q0 169 -47 296.5t-130 211.5q-85 86 -199 128t-247 42q-127 0 -241.5 -50t-201.5 -135q-89 -87 -144.5 -218t-55.5 -287q0 -170 52.5 -301t139.5 -218q87 -86 202 -131t243 -45 q85 0 193.5 15.5t192.5 40.5v-194q-93 -21 -185 -32t-201 -11q-183 0 -338.5 63t-269.5 179q-113 115 -176.5 278t-63.5 356zM789 634q0 -158 43 -234t142 -76q52 0 91 20.5t79 59.5v504q-41 21 -76 30.5t-79 9.5q-96 0 -148 -84t-52 -230z" />
<glyph unicode="A" horiz-adv-x="1590" d="M24 0l550 1489h442l550 -1489h-397l-103 301h-552l-103 -301h-387zM607 574h366l-183 534z" />
<glyph unicode="B" horiz-adv-x="1560" d="M190 0v1489h578q180 0 263.5 -12t165.5 -53q85 -43 126.5 -115.5t41.5 -165.5q0 -108 -57 -190.5t-161 -128.5v-8q146 -29 231.5 -120t85.5 -240q0 -108 -43.5 -193t-119.5 -141q-88 -66 -193.5 -94t-267.5 -28h-650zM572 273h28q162 0 232 1t129 26q60 25 82.5 66.5 t22.5 95.5q0 71 -27.5 109.5t-93.5 57.5q-45 13 -124 14t-165 1h-84v-371zM572 901h60q91 0 155 3t101 20q52 23 68 59.5t16 84.5q0 37 -18.5 74t-65.5 55q-42 16 -104.5 17.5t-175.5 1.5h-36v-315z" />
<glyph unicode="C" horiz-adv-x="1482" d="M103 743q0 177 53 321t154 247q97 99 240.5 153t313.5 54q94 0 169.5 -10.5t139.5 -27.5q67 -19 121.5 -42.5t95.5 -43.5v-361h-44q-28 24 -70.5 57t-96.5 65q-55 32 -119 54t-137 22q-81 0 -154 -25.5t-135 -84.5q-59 -57 -95.5 -151t-36.5 -228q0 -140 39.5 -234 t99.5 -148q61 -55 136 -78.5t148 -23.5q70 0 138.5 21t126.5 57q49 29 91 62t69 57h40v-356q-56 -25 -107 -47t-107 -38q-73 -21 -137 -32t-176 -11q-166 0 -306.5 49t-241.5 146t-156.5 242t-55.5 335z" />
<glyph unicode="D" horiz-adv-x="1700" d="M190 0v1489h540q182 0 314 -30.5t222 -86.5q154 -94 242.5 -253.5t88.5 -375.5q0 -208 -95 -372.5t-240 -252.5q-109 -66 -239 -92t-308 -26h-525zM574 279h97q137 0 201 12.5t125 45.5q105 60 154 160.5t49 248.5q0 147 -53.5 251.5t-169.5 163.5q-59 29 -120.5 39.5 t-185.5 10.5h-97v-932z" />
<glyph unicode="E" horiz-adv-x="1399" d="M190 0v1489h1077v-288h-695v-257h645v-288h-645v-368h695v-288h-1077z" />
<glyph unicode="F" horiz-adv-x="1332" d="M190 0v1489h1067v-288h-685v-277h635v-288h-635v-636h-382z" />
<glyph unicode="G" horiz-adv-x="1661" d="M103 746q0 347 217 559.5t605 212.5q147 0 280 -26.5t296 -105.5v-349h-43q-28 21 -82 59.5t-104 65.5q-58 32 -135.5 55t-164.5 23q-102 0 -185 -30t-149 -92q-63 -60 -99.5 -152.5t-36.5 -213.5q0 -247 131 -378t387 -131q22 0 48.5 1t48.5 3v292h-297v281h687v-735 q-100 -39 -265 -77.5t-329 -38.5q-380 0 -595 206.5t-215 570.5z" />
<glyph unicode="H" horiz-adv-x="1715" d="M190 0v1489h384v-545h567v545h384v-1489h-384v656h-567v-656h-384z" />
<glyph unicode="I" horiz-adv-x="1118" d="M123 0v264h244v961h-244v264h872v-264h-244v-961h244v-264h-872z" />
<glyph unicode="J" horiz-adv-x="1137" d="M42 6v302h36q48 -18 100 -33.5t133 -15.5q105 0 161.5 28t80.5 78q23 49 26 107.5t3 149.5v593h-341v274h725v-1052q0 -98 -35 -183.5t-104 -144.5q-73 -63 -176 -97.5t-255 -34.5q-103 0 -194 7.5t-160 21.5z" />
<glyph unicode="K" horiz-adv-x="1579" d="M190 0v1489h384v-674l532 674h445l-582 -689l611 -800h-471l-445 596l-90 -109v-487h-384z" />
<glyph unicode="L" horiz-adv-x="1305" d="M190 0v1489h384v-1201h690v-288h-1074z" />
<glyph unicode="M" horiz-adv-x="1941" d="M190 0v1489h446l335 -747l334 747h446v-1489h-382v997l-276 -647h-265l-276 647v-997h-362z" />
<glyph unicode="N" horiz-adv-x="1734" d="M190 0v1489h459l543 -853v853h352v-1489h-370l-632 1022v-1022h-352z" />
<glyph unicode="O" horiz-adv-x="1741" d="M103 744q0 359 204 567.5t563 208.5q358 0 563 -208.5t205 -567.5q0 -356 -204 -565.5t-564 -209.5q-359 0 -563 209.5t-204 565.5zM502 744q0 -133 30.5 -226.5t80.5 -152.5t117 -87t141 -28t141 28.5t117 88.5q56 68 83 160.5t27 217.5q0 134 -31 228t-81 152 q-51 60 -117.5 87t-138.5 27q-73 0 -137.5 -26t-118.5 -86q-50 -56 -81.5 -154.5t-31.5 -228.5z" />
<glyph unicode="P" horiz-adv-x="1501" d="M190 0v1489h632q142 0 239.5 -24.5t172.5 -73.5q90 -59 137.5 -151t47.5 -221q0 -100 -35 -195.5t-100 -160.5q-89 -88 -198.5 -133t-272.5 -45h-239v-485h-384zM574 765h110q98 0 161.5 12t106.5 48q37 32 53.5 76.5t16.5 108.5q0 63 -34 108.5t-79 63.5 q-60 24 -117 26.5t-152 2.5h-66v-446z" />
<glyph unicode="Q" horiz-adv-x="1741" d="M103 744q0 359 204 567.5t563 208.5q358 0 563 -208.5t205 -567.5q0 -265 -120 -457.5t-348 -268.5q4 -99 54 -142t171 -43q41 0 97 14t78 25h38v-264q-56 -13 -121.5 -23t-200.5 -10q-119 0 -207.5 29.5t-147.5 83.5q-58 53 -87 125t-34 160q-334 19 -520.5 223.5 t-186.5 547.5zM502 744q0 -133 30.5 -226.5t80.5 -152.5t117 -87t141 -28t141 28.5t117 88.5q56 68 83 160.5t27 217.5q0 134 -31 228t-81 152q-51 60 -117.5 87t-138.5 27q-73 0 -137.5 -26t-118.5 -86q-50 -56 -81.5 -154.5t-31.5 -228.5z" />
<glyph unicode="R" horiz-adv-x="1602" d="M190 0v1489h644q132 0 227 -15t178 -65q84 -50 133.5 -129.5t49.5 -199.5q0 -165 -76.5 -269t-218.5 -173l497 -638h-469l-406 546h-177v-546h-382zM572 814h118q92 0 154 9t104 41q40 31 58.5 68.5t18.5 100.5q0 56 -23 96t-79 63q-39 16 -91 19.5t-121 3.5h-139v-401z " />
<glyph unicode="S" horiz-adv-x="1455" d="M109 88v357h42q119 -95 266.5 -146t283.5 -51q35 0 92 6t93 20q44 18 72.5 45t28.5 80q0 49 -41.5 84.5t-121.5 54.5q-84 20 -177.5 37.5t-175.5 44.5q-188 61 -270.5 165.5t-82.5 259.5q0 208 186.5 339.5t479.5 131.5q147 0 290.5 -28.5t248.5 -71.5v-343h-41 q-90 72 -220.5 120.5t-266.5 48.5q-48 0 -95.5 -6.5t-91.5 -24.5q-39 -15 -67 -45.5t-28 -69.5q0 -59 45 -90.5t170 -57.5q82 -17 157.5 -33t162.5 -44q171 -56 252.5 -152.5t81.5 -250.5q0 -220 -186.5 -357.5t-506.5 -137.5q-185 0 -322.5 32.5t-257.5 82.5z" />
<glyph unicode="T" horiz-adv-x="1396" d="M41 1201v288h1314v-288h-465v-1201h-384v1201h-465z" />
<glyph unicode="U" horiz-adv-x="1663" d="M169 538v951h386v-929q0 -155 65 -231t211 -76q144 0 210.5 73t66.5 234v929h386v-950q0 -276 -168 -423t-495 -147t-494.5 147t-167.5 422z" />
<glyph unicode="V" horiz-adv-x="1564" d="M24 1489h403l360 -1046l360 1046h393l-543 -1489h-430z" />
<glyph unicode="W" horiz-adv-x="2311" d="M66 1489h401l229 -1025l274 1025h383l261 -1025l240 1025h391l-401 -1489h-425l-267 970l-260 -970h-425z" />
<glyph unicode="X" horiz-adv-x="1564" d="M24 0l528 750l-517 739h443l310 -464l319 464h425l-520 -724l528 -765h-444l-321 490l-327 -490h-424z" />
<glyph unicode="Y" horiz-adv-x="1509" d="M9 1489h436l322 -576l311 576h422l-549 -913v-576h-384v558z" />
<glyph unicode="Z" horiz-adv-x="1417" d="M90 0v279l742 922h-706v288h1175v-284l-741 -917h781v-288h-1251z" />
<glyph unicode="[" horiz-adv-x="1113" d="M248 -392v1948h668v-240h-355v-1468h355v-240h-668z" />
<glyph unicode="\" horiz-adv-x="1412" d="M189 1556h310l790 -1880h-307z" />
<glyph unicode="]" horiz-adv-x="1113" d="M198 -152h355v1468h-355v240h668v-1948h-668v240z" />
<glyph unicode="^" horiz-adv-x="1776" d="M197 640l550 849h249l584 -847h-320l-388 567l-357 -569h-318z" />
<glyph unicode="_" d="M-16 -139h1488v-211h-1488v211z" />
<glyph unicode="`" d="M374 1656v20h351l247 -393h-246z" />
<glyph unicode="a" horiz-adv-x="1368" d="M86 322q0 123 55 201t156 123q100 45 248 64t307 28v6q0 93 -76 128.5t-224 35.5q-89 0 -190 -31.5t-145 -48.5h-33v271q57 15 185.5 35.5t257.5 20.5q307 0 443.5 -94.5t136.5 -296.5v-764h-357v119q-29 -22 -72 -53t-81 -49q-53 -24 -110 -35.5t-125 -11.5 q-160 0 -268 99t-108 253zM452 351q0 -35 6 -57t30 -42q23 -20 55 -29.5t100 -9.5q54 0 109.5 22t97.5 58v234q-73 -6 -158 -16.5t-129 -24.5q-54 -17 -82.5 -49.5t-28.5 -85.5z" />
<glyph unicode="b" horiz-adv-x="1432" d="M170 0v1556h360v-550q83 66 169.5 107t199.5 41q213 0 328 -153.5t115 -423.5q0 -265 -146.5 -432t-365.5 -167q-94 0 -165 20t-135 58l-15 -56h-345zM530 258q39 -14 74 -19t84 -5q143 0 213 84t70 252q0 150 -51 231t-182 81q-51 0 -105 -15.5t-103 -44.5v-564z" />
<glyph unicode="c" horiz-adv-x="1205" d="M88 557q0 157 52.5 271t146.5 189q91 71 210 104t247 33q115 0 212 -25t181 -65v-307h-51q-21 18 -50.5 42t-72.5 47q-41 22 -90 36.5t-114 14.5q-144 0 -221.5 -91.5t-77.5 -248.5q0 -162 79.5 -246t225.5 -84q68 0 122.5 15.5t90.5 36.5q34 20 60 42t48 43h51v-307 q-85 -40 -177.5 -63.5t-204.5 -23.5q-147 0 -268.5 35t-211.5 108q-89 73 -138 184t-49 260z" />
<glyph unicode="d" horiz-adv-x="1432" d="M90 553q0 143 41.5 253.5t113.5 189.5q68 75 165 116.5t194 41.5q101 0 165.5 -21.5t132.5 -54.5v478h360v-1556h-360v117q-93 -76 -174 -112t-187 -36q-205 0 -328 158t-123 426zM461 557q0 -165 57 -239.5t183 -74.5q49 0 104 18.5t97 48.5v551q-38 16 -80 23t-77 7 q-142 0 -213 -88.5t-71 -245.5z" />
<glyph unicode="e" horiz-adv-x="1360" d="M88 555q0 278 170.5 440.5t467.5 162.5q274 0 412 -138.5t138 -398.5v-126h-824q8 -132 100.5 -202t272.5 -70q114 0 221 41t169 88h40v-289q-122 -49 -230 -71t-239 -22q-338 0 -518 152t-180 433zM451 706h467q-3 113 -56 170t-165 57q-104 0 -171 -54t-75 -173z" />
<glyph unicode="f" horiz-adv-x="865" d="M43 879v244h154v31q0 206 109.5 309t331.5 103q80 0 145 -5.5t115 -14.5v-254h-27q-24 7 -62.5 16t-82.5 9q-106 0 -143.5 -38t-37.5 -147v-9h278v-244h-266v-879h-360v879h-154z" />
<glyph unicode="g" horiz-adv-x="1432" d="M90 590q0 139 39 240t110 176q66 70 162.5 109t197.5 39q91 0 165.5 -21.5t135.5 -59.5l13 50h349v-994q0 -158 -45 -266t-126 -169q-81 -62 -195.5 -89.5t-258.5 -27.5q-117 0 -230.5 14t-196.5 34v281h44q66 -26 161 -47.5t170 -21.5q100 0 162.5 18.5t95.5 52.5 q31 32 45 82t14 120v21q-65 -53 -144 -84t-176 -31q-236 0 -364 142t-128 432zM461 582q0 -162 60.5 -226t179.5 -64q54 0 106 17t95 45v509q-31 13 -76 20.5t-81 7.5q-142 0 -213 -81.5t-71 -227.5z" />
<glyph unicode="h" horiz-adv-x="1459" d="M170 0v1556h360v-557q96 75 184.5 115t196.5 40q182 0 284.5 -106t102.5 -317v-731h-362v557q0 68 -7 135.5t-24 99.5q-20 37 -58.5 54t-107.5 17q-49 0 -99.5 -16t-109.5 -51v-796h-360z" />
<glyph unicode="i" horiz-adv-x="700" d="M160 1283v273h380v-273h-380zM170 0v1123h360v-1123h-360z" />
<glyph unicode="j" horiz-adv-x="825" d="M-58 -139h28q30 -10 75 -17t71 -7q104 0 142 62t38 204v776h-213v244h573v-1143q0 -190 -117 -296.5t-301 -106.5q-98 0 -178.5 8.5t-117.5 17.5v258zM273 1283v273h383v-273h-383z" />
<glyph unicode="k" horiz-adv-x="1374" d="M170 0v1556h360v-929l388 496h415l-404 -484l433 -639h-419l-315 489l-98 -119v-370h-360z" />
<glyph unicode="l" horiz-adv-x="700" d="M170 0v1556h360v-1556h-360z" />
<glyph unicode="m" horiz-adv-x="2167" d="M170 0v1123h360v-124q93 73 178 114t188 41q111 0 196 -49.5t133 -145.5q108 91 210 143t200 52q182 0 276.5 -109t94.5 -314v-731h-362v561q0 83 -3.5 140t-21.5 93q-17 36 -54 52.5t-104 16.5q-45 0 -88 -15.5t-105 -51.5v-796h-362v561q0 82 -4 139.5t-22 93.5 t-54.5 52.5t-102.5 16.5q-53 0 -103 -21.5t-90 -45.5v-796h-360z" />
<glyph unicode="n" horiz-adv-x="1459" d="M170 0v1123h360v-124q96 75 184.5 115t196.5 40q182 0 284.5 -106t102.5 -317v-731h-362v557q0 68 -7 135.5t-24 99.5q-20 37 -58.5 54t-107.5 17q-49 0 -99.5 -16t-109.5 -51v-796h-360z" />
<glyph unicode="o" horiz-adv-x="1406" d="M88 561q0 279 162.5 438t452.5 159q294 0 454.5 -160t160.5 -437t-161.5 -436.5t-453.5 -159.5t-453.5 159.5t-161.5 436.5zM461 559q0 -92 17 -159.5t50 -108.5q32 -39 76.5 -57t101.5 -18q49 0 93.5 16.5t75.5 55.5q35 43 52.5 103.5t17.5 167.5q0 99 -18 166t-50 107 q-32 41 -77 58t-97 17t-92.5 -14t-77.5 -56q-33 -39 -52.5 -107t-19.5 -171z" />
<glyph unicode="p" horiz-adv-x="1432" d="M170 -412v1535h360v-117q83 66 169.5 107t199.5 41q210 0 326.5 -154t116.5 -423q0 -139 -42.5 -253t-111.5 -188q-72 -78 -163 -118t-195 -40q-96 0 -163 20.5t-137 57.5v-468h-360zM530 257q36 -14 77 -18t81 -4q143 0 213 83.5t70 251.5q0 164 -56 238t-177 74 q-51 0 -105 -15.5t-103 -44.5v-565z" />
<glyph unicode="q" horiz-adv-x="1432" d="M90 553q0 143 41.5 253.5t113.5 189.5q68 75 165 116.5t194 41.5q95 0 159.5 -21.5t136.5 -59.5l13 50h349v-1535h-360v522q-88 -71 -172 -106t-189 -35q-206 0 -328.5 158t-122.5 426zM461 557q0 -165 57 -239.5t183 -74.5q49 0 104 18.5t97 48.5v551q-38 16 -80 23 t-77 7q-142 0 -213 -88.5t-71 -245.5z" />
<glyph unicode="r" horiz-adv-x="1018" d="M170 0v1123h360v-165q119 102 207 135.5t162 33.5q19 0 43 -1t42 -3v-343h-32q-23 8 -74 12t-85 4q-77 0 -136 -10t-127 -34v-752h-360z" />
<glyph unicode="s" horiz-adv-x="1215" d="M95 59v296h33q27 -19 62.5 -41.5t100.5 -48.5q56 -23 127 -39.5t152 -16.5q106 0 157 23.5t51 69.5q0 41 -30 59.5t-114 35.5q-40 9 -108.5 19.5t-124.5 25.5q-153 40 -227 124.5t-74 210.5q0 162 153.5 269.5t419.5 107.5q126 0 241.5 -25.5t180.5 -54.5v-284h-31 q-80 55 -182.5 89.5t-207.5 34.5q-87 0 -146.5 -24t-59.5 -68q0 -40 27 -61t127 -42q55 -11 118.5 -21.5t127.5 -26.5q142 -37 210 -116.5t68 -198.5q0 -174 -156 -280.5t-427 -106.5q-150 0 -272 28t-196 62z" />
<glyph unicode="t" horiz-adv-x="933" d="M43 879v244h148v321h360v-321h337v-244h-337v-398q0 -59 1 -103t16 -79q14 -35 49.5 -55.5t103.5 -20.5q28 0 73.5 12t63.5 22h30v-247q-58 -15 -123 -23.5t-159 -8.5q-210 0 -312.5 85t-102.5 291v525h-148z" />
<glyph unicode="u" horiz-adv-x="1459" d="M161 392v731h362v-557q0 -85 5.5 -141.5t25.5 -93.5q19 -37 57.5 -54t107.5 -17q46 0 102 17t108 50v796h360v-1123h-360v124q-100 -76 -183 -115.5t-198 -39.5q-186 0 -286.5 107t-100.5 316z" />
<glyph unicode="v" horiz-adv-x="1331" d="M30 1123h381l260 -772l257 772h373l-433 -1123h-408z" />
<glyph unicode="w" horiz-adv-x="2006" d="M45 1123h378l192 -774l240 774h319l228 -774l189 774h370l-348 -1123h-382l-229 757l-225 -757h-387z" />
<glyph unicode="x" horiz-adv-x="1370" d="M26 0l443 561l-436 562h420l236 -330l237 330h413l-437 -553l442 -570h-420l-240 336l-246 -336h-412z" />
<glyph unicode="y" horiz-adv-x="1333" d="M30 1123h378l269 -726l256 726h370l-624 -1535h-390l178 420z" />
<glyph unicode="z" horiz-adv-x="1222" d="M84 0v231l592 629h-568v263h1020v-227l-583 -628h594v-268h-1055z" />
<glyph unicode="{" d="M152 459v246h70q176 0 255 69.5t79 247.5v147q0 190 115.5 288.5t309.5 98.5h274v-224h-114q-60 0 -108.5 -9t-81.5 -34q-34 -26 -51 -75.5t-17 -127.5v-109q0 -140 -78.5 -234t-223.5 -149v-24q145 -55 223.5 -149t78.5 -234v-109q0 -78 17 -127.5t51 -75.5 q32 -26 81 -34.5t109 -8.5h114v-224h-274q-194 0 -309.5 98.5t-115.5 288.5v147q0 178 -79 247.5t-255 69.5h-70z" />
<glyph unicode="|" horiz-adv-x="1113" d="M411 -392v1948h291v-1948h-291z" />
<glyph unicode="}" d="M201 -168h114q60 0 108.5 9t81.5 34q34 26 51 75.5t17 127.5v109q0 140 78.5 234t223.5 149v24q-145 55 -223.5 149t-78.5 234v109q0 78 -17 127.5t-51 75.5q-33 25 -81.5 34t-108.5 9h-114v224h274q194 0 309.5 -98.5t115.5 -288.5v-147q0 -178 79 -247.5t255 -69.5h70 v-246h-70q-176 0 -255 -69.5t-79 -247.5v-147q0 -190 -115.5 -288.5t-309.5 -98.5h-274v224z" />
<glyph unicode="~" horiz-adv-x="1776" d="M157 325q0 335 111 507.5t322 172.5q68 0 123 -17.5t100 -45.5q42 -28 76.5 -63t68.5 -75q24 -29 52.5 -66.5t59.5 -70.5q33 -34 59.5 -49.5t53.5 -15.5q57 0 90 29t49 82q17 53 23 128t8 166h270q-1 -328 -109.5 -504t-323.5 -176q-71 0 -124.5 16.5t-96.5 44.5 q-42 29 -75.5 63.5t-69.5 76.5q-24 29 -56.5 70.5t-55.5 65.5q-29 31 -55.5 48.5t-59.5 17.5q-60 0 -91 -31t-48 -80q-18 -54 -23.5 -135t-7.5 -159h-270z" />
<glyph unicode="&#xa1;" horiz-adv-x="824" d="M203 0l46 1060h326l46 -1060h-418zM210 1225v264h404v-264h-404z" />
<glyph unicode="&#xa2;" d="M188 567q0 150 48 258.5t132 181.5q82 71 191.5 108t230.5 45v315h174v-319q113 -12 195 -40.5t112 -41.5v-295h-49q-38 32 -103.5 72t-158.5 58v-676q89 14 151.5 49t110.5 80h49v-295q-51 -21 -133.5 -46.5t-173.5 -33.5v-348h-174v345q-139 9 -247.5 49.5 t-186.5 110.5q-81 73 -124.5 179.5t-43.5 243.5zM550 567q0 -143 66.5 -225.5t177.5 -105.5v672q-114 -24 -179 -115t-65 -226z" />
<glyph unicode="&#xa3;" d="M154 0v281q124 34 166 106t42 216h-176v217h176v261q0 191 147.5 314t389.5 123q136 0 225.5 -16.5t142.5 -31.5v-312h-45q-76 47 -143 66.5t-125 19.5q-104 0 -167.5 -59.5t-63.5 -166.5v-198h437v-217h-437q0 -89 -47.5 -178t-121.5 -129v-11h771v-285h-1171z" />
<glyph unicode="&#xa4;" d="M169 273l210 208q-23 42 -34 84.5t-11 98.5q0 55 11.5 100.5t38.5 91.5l-208 210l156 157l209 -209q41 23 87.5 34t100.5 11q56 0 99 -11.5t83 -32.5l210 208l162 -162l-209 -208q28 -49 38.5 -93.5t10.5 -93.5q0 -55 -12 -101t-35 -85l207 -207l-160 -161l-208 207 q-42 -24 -86.5 -36t-100.5 -12q-53 0 -98 11.5t-89 36.5l-209 -209zM556 667q0 -69 49.5 -118.5t119.5 -49.5t119 49.5t49 118.5q0 71 -49 120t-119 49t-119.5 -49t-49.5 -120z" />
<glyph unicode="&#xa5;" d="M52 1489h418l265 -532l265 532h404l-495 -819v-45h315v-217h-313v-78h313v-217h-313v-113h-368v113h-313v217h313v78h-313v217h315v45z" />
<glyph unicode="&#xa6;" horiz-adv-x="1113" d="M411 -392v798h291v-798h-291zM411 758v798h291v-798h-291z" />
<glyph unicode="&#xa7;" d="M151 521q0 96 49.5 176t164.5 153v7q-102 56 -143.5 128t-41.5 163q0 158 168.5 265t443.5 107q113 0 229.5 -15.5t197.5 -41.5v-290h-32q-49 28 -145.5 60.5t-195.5 32.5q-114 0 -185 -32.5t-71 -84.5q0 -38 23 -61.5t69 -42.5q42 -17 112 -37.5t148 -45.5 q175 -56 269 -141.5t94 -213.5q0 -107 -61 -192.5t-153 -136.5v-7q98 -53 140 -122t42 -159q0 -164 -162.5 -273t-448.5 -109q-101 0 -233.5 16.5t-205.5 40.5v290h34q57 -36 154.5 -64.5t195.5 -28.5q137 0 196.5 30.5t59.5 86.5q0 38 -23 62.5t-69 43.5 q-47 20 -119.5 40.5t-136.5 40.5q-178 56 -271 139.5t-93 215.5zM510 581q0 -56 42.5 -92t116.5 -62q29 -10 76 -25t94 -27q39 28 73 70.5t34 101.5q0 56 -42 91.5t-117 62.5q-26 9 -67.5 22t-101.5 29q-45 -32 -76.5 -75.5t-31.5 -95.5z" />
<glyph unicode="&#xa8;" d="M311 1283v273h297v-273h-297zM848 1283v273h297v-273h-297z" />
<glyph unicode="&#xa9;" horiz-adv-x="1974" d="M122 655q0 358 253.5 611.5t611.5 253.5t611.5 -253.5t253.5 -611.5t-253.5 -611.5t-611.5 -253.5t-611.5 253.5t-253.5 611.5zM314 655q0 -279 197.5 -479.5t476.5 -200.5t476.5 200.5t197.5 479.5t-197.5 479.5t-476.5 200.5t-476.5 -200.5t-197.5 -479.5zM557 660 q0 208 134 333t342 125q80 0 154 -21t134 -50v-206h-21q-58 46 -126.5 73.5t-136.5 27.5q-113 0 -171.5 -71t-58.5 -211q0 -135 60.5 -207t169.5 -72q83 0 152.5 33t110.5 68h21v-205q-74 -35 -148 -53.5t-140 -18.5q-221 0 -348.5 124t-127.5 331z" />
<glyph unicode="&#xaa;" horiz-adv-x="1224" d="M152 854q0 94 39 157.5t123 101.5q77 36 192 51.5t237 22.5v4q0 75 -57.5 103.5t-172.5 28.5q-70 0 -148.5 -26t-111.5 -39h-25v216q44 12 141 29t196 17q238 0 350.5 -76t112.5 -237v-611h-286v95q-51 -47 -122.5 -83t-177.5 -36q-122 0 -206 79t-84 203zM427 877 q0 -28 5.5 -46t23.5 -33q19 -16 44 -23.5t81 -7.5q39 0 83.5 17.5t77.5 46.5v187q-60 -5 -127.5 -13.5t-101.5 -19.5q-41 -13 -63.5 -38.5t-22.5 -69.5z" />
<glyph unicode="&#xab;" horiz-adv-x="1740" d="M217 591v135l602 462v-307l-302 -223l302 -223v-307zM844 591v135l602 462v-307l-302 -223l302 -223v-307z" />
<glyph unicode="&#xac;" horiz-adv-x="1776" d="M216 557v269h1329v-797h-285v528h-1044z" />
<glyph unicode="&#xad;" horiz-adv-x="983" d="M110 518v288h763v-288h-763z" />
<glyph unicode="&#xae;" horiz-adv-x="1974" d="M122 655q0 358 253.5 611.5t611.5 253.5t611.5 -253.5t253.5 -611.5t-253.5 -611.5t-611.5 -253.5t-611.5 253.5t-253.5 611.5zM314 655q0 -279 197.5 -479.5t476.5 -200.5t476.5 200.5t197.5 479.5t-197.5 479.5t-476.5 200.5t-476.5 -200.5t-197.5 -479.5zM643 245v861 h327q91 0 146 -7t109 -36q59 -33 86.5 -80t27.5 -117q0 -94 -53 -155t-138 -95l325 -371h-271l-261 316h-86v-316h-212zM855 714h51q53 0 91 7.5t61 25.5q23 17 34 42t11 61q0 27 -11.5 49.5t-38.5 36.5q-25 14 -57.5 17.5t-73.5 3.5h-67v-243z" />
<glyph unicode="&#xaf;" d="M-16 1628v211h1488v-211h-1488z" />
<glyph unicode="&#xb0;" horiz-adv-x="1203" d="M180 1102q0 176 122.5 297t299.5 121q178 0 300 -121t122 -297t-122.5 -297t-299.5 -121t-299.5 121t-122.5 297zM408 1102q0 -85 56.5 -141.5t137.5 -56.5q83 0 138.5 58t55.5 140t-55.5 140.5t-138.5 58.5q-82 0 -138 -58t-56 -141z" />
<glyph unicode="&#xb1;" horiz-adv-x="1776" d="M218 0v268h534v416h-534v268h533v529h274v-529h533v-268h-534v-416h534v-268h-1340z" />
<glyph unicode="&#xb2;" horiz-adv-x="1224" d="M230 566v189q69 41 144 89t127 89q112 87 139.5 139.5t27.5 106.5q0 59 -40.5 90.5t-119.5 31.5q-57 0 -125.5 -24t-123.5 -56h-23v237q65 23 160.5 42t191.5 19q185 0 285.5 -73t100.5 -213q0 -81 -35 -155t-155 -179q-34 -30 -83.5 -65.5t-85.5 -61.5h422v-206h-807z " />
<glyph unicode="&#xb3;" horiz-adv-x="1224" d="M224 600v216h22q42 -23 121.5 -46.5t155.5 -23.5q99 0 148.5 23t49.5 79q0 48 -32.5 70t-127.5 22h-153v195h137q75 0 113 21.5t38 71.5q0 46 -41.5 66.5t-130.5 20.5q-66 0 -143.5 -24t-118.5 -46h-23v213q64 22 153 41.5t208 19.5q178 0 283.5 -60t105.5 -178 q0 -90 -48.5 -145.5t-124.5 -80.5v-8q87 -17 141.5 -72.5t54.5 -146.5q0 -140 -108.5 -213t-321.5 -73q-129 0 -216 18t-142 40z" />
<glyph unicode="&#xb4;" d="M485 1283l247 393h351v-20l-352 -373h-246z" />
<glyph unicode="&#xb5;" horiz-adv-x="1477" d="M170 -412v1535h360v-799q45 -36 99 -51t109 -15q51 0 107.5 15.5t101.5 50.5v799h360v-1123h-319l-16 80h-7q-44 -38 -97.5 -66.5t-126.5 -28.5q-66 0 -121.5 27t-89.5 60v-484h-360z" />
<glyph unicode="&#xb6;" d="M135 1049q0 208 152 324t423 116h542v-1852h-202v1672h-151v-1672h-212v956q-275 6 -413.5 127.5t-138.5 328.5z" />
<glyph unicode="&#xb7;" horiz-adv-x="740" d="M183 464v393h374v-393h-374z" />
<glyph unicode="&#xb8;" d="M434 -199h23q24 -11 70 -23t88 -12q80 0 122.5 41.5t42.5 118.5q0 23 -1 52.5t-1 41.5h223q1 -18 3 -49.5t2 -56.5q0 -162 -99.5 -249.5t-259.5 -87.5q-35 0 -101.5 5.5t-111.5 18.5v200z" />
<glyph unicode="&#xb9;" horiz-adv-x="1224" d="M279 1180v178q114 0 183.5 29.5t78.5 105.5h238v-739h207v-188h-698v188h217v426h-226z" />
<glyph unicode="&#xba;" horiz-adv-x="1224" d="M127 1043q0 222 128 349.5t357 127.5q232 0 358.5 -128t126.5 -349t-127.5 -349t-357.5 -128t-357.5 128t-127.5 349zM423 1041q0 -80 13.5 -131t38.5 -83q24 -31 58.5 -45.5t80.5 -14.5q40 0 74.5 12.5t58.5 44.5q28 36 41 80.5t13 136.5q0 78 -13.5 132t-38.5 87 q-25 32 -60.5 46t-76.5 14t-73 -11.5t-60 -44.5q-25 -30 -40.5 -86.5t-15.5 -136.5z" />
<glyph unicode="&#xbb;" horiz-adv-x="1740" d="M294 128v307l302 223l-302 223v307l602 -462v-135zM921 128v307l302 223l-302 223v307l602 -462v-135z" />
<glyph unicode="&#xbc;" horiz-adv-x="2420" d="M199 1166v182q84 0 107.5 4.5t79.5 31.5q14 6 20 9t16 8.5t13 7t9 7.5t7.5 8t5 9t4 10.5t2.5 13.5t2.5 16t2.5 20h242v-934h-277v607h-234zM635 0l785 1498h269l-785 -1498h-269zM1359 197v261l459 486h277v-561h167v-186h-167v-197h-262v197h-474zM1511 383h326v338z " />
<glyph unicode="&#xbd;" horiz-adv-x="2420" d="M179 1166v182q84 0 107.5 4.5t79.5 31.5q14 6 20 9t16 8.5t13 7t9 7.5t7.5 8t5 9t4 10.5t2.5 13.5t2.5 16t2.5 20h242v-934h-277v607h-234zM600 0l785 1498h269l-785 -1498h-269zM1476 -1v189q69 41 144 89t127 89q112 87 139.5 139.5t27.5 106.5q0 59 -40.5 90.5 t-119.5 31.5q-57 0 -125.5 -24t-123.5 -56h-23v237q65 23 160.5 42t191.5 19q185 0 285.5 -73t100.5 -213q0 -81 -35 -155t-155 -179q-34 -30 -83.5 -65.5t-85.5 -61.5h422v-206h-807z" />
<glyph unicode="&#xbe;" horiz-adv-x="2420" d="M177 600v216h22q42 -23 121.5 -46.5t155.5 -23.5q99 0 148.5 23t49.5 79q0 48 -32.5 70t-127.5 22h-153v195h137q75 0 113 21.5t38 71.5q0 46 -41.5 66.5t-130.5 20.5q-66 0 -143.5 -24t-118.5 -46h-23v213q64 22 153 41.5t208 19.5q178 0 283.5 -60t105.5 -178 q0 -90 -48.5 -145.5t-124.5 -80.5v-8q87 -17 141.5 -72.5t54.5 -146.5q0 -140 -108.5 -213t-321.5 -73q-129 0 -216 18t-142 40zM730 0l785 1498h269l-785 -1498h-269zM1408 197v261l459 486h277v-561h167v-186h-167v-197h-262v197h-474zM1560 383h326v338z" />
<glyph unicode="&#xbf;" horiz-adv-x="1263" d="M112 364q0 101 29.5 178.5t83.5 134.5t129.5 102t170.5 82v228h352v-337q-71 -19 -128.5 -39t-120.5 -65q-58 -41 -92 -93.5t-34 -119.5q0 -100 64.5 -142.5t181.5 -42.5q72 0 162.5 31t165.5 80h40v-305q-64 -27 -197 -56.5t-270 -29.5q-247 0 -392 109t-145 285z M497 1225v264h404v-264h-404z" />
<glyph unicode="&#xc0;" horiz-adv-x="1590" d="M24 0l550 1489h442l550 -1489h-397l-103 301h-552l-103 -301h-387zM434 2029v20h351l247 -393h-246zM607 574h366l-183 534z" />
<glyph unicode="&#xc1;" horiz-adv-x="1590" d="M24 0l550 1489h442l550 -1489h-397l-103 301h-552l-103 -301h-387zM535 1656l247 393h351v-20l-352 -373h-246zM607 574h366l-183 534z" />
<glyph unicode="&#xc2;" horiz-adv-x="1590" d="M24 0l550 1489h442l550 -1489h-397l-103 301h-552l-103 -301h-387zM349 1646l321 393h251l321 -393h-264l-185 219l-184 -219h-260zM607 574h366l-183 534z" />
<glyph unicode="&#xc3;" horiz-adv-x="1590" d="M24 0l550 1489h442l550 -1489h-397l-103 301h-552l-103 -301h-387zM312 1653q2 46 2.5 64.5t5 45t7 34.5t14.5 28t21.5 31t33.5 38q58 68 83 79t117 11q36 0 47.5 -2t43.5 -16q43 -17 79 -38q37 -20 69 -38q24 -13 31.5 -15t27.5 -2q36 0 44 4t22 28t16.5 34.5t3.5 51.5 h219q-3 -52 -4 -72t-6 -49t-7.5 -37.5t-14 -28t-20 -29.5t-31.5 -35q-54 -61 -79.5 -71t-122.5 -10q-35 0 -46.5 2.5t-43.5 16.5q-42 18 -77 39q-31 19 -69 39q-28 14 -35.5 16.5t-26.5 2.5q-37 0 -45 -4t-20.5 -28t-15 -35.5t-4.5 -54.5h-219zM607 574h366l-183 534z" />
<glyph unicode="&#xc4;" horiz-adv-x="1590" d="M24 0l550 1489h442l550 -1489h-397l-103 301h-552l-103 -301h-387zM380 1656v273h297v-273h-297zM607 574h366l-183 534zM917 1656v273h297v-273h-297z" />
<glyph unicode="&#xc5;" horiz-adv-x="1590" d="M24 0l524 1419q-42 40 -68.5 94t-26.5 114q0 127 102 217.5t240 90.5t240 -90.5t102 -217.5q0 -62 -27.5 -116.5t-67.5 -91.5l524 -1419h-397l-103 301h-552l-103 -301h-387zM607 574h366l-183 534zM659 1635q0 -63 38 -104.5t98 -41.5t98 42t38 104q0 63 -38.5 104 t-97.5 41t-97.5 -41t-38.5 -104z" />
<glyph unicode="&#xc6;" horiz-adv-x="2240" d="M4 0l611 1489h1493v-288h-695v-257h645v-288h-645v-368h695v-288h-1074v404h-469l-162 -404h-399zM679 688h355v527h-144z" />
<glyph unicode="&#xc7;" horiz-adv-x="1482" d="M103 743q0 177 53 321t154 247q97 99 240.5 153t313.5 54q94 0 169.5 -10.5t139.5 -27.5q67 -19 121.5 -42.5t95.5 -43.5v-361h-44q-28 24 -70.5 57t-96.5 65q-55 32 -119 54t-137 22q-81 0 -154 -25.5t-135 -84.5q-59 -57 -95.5 -151t-36.5 -228q0 -140 39.5 -234 t99.5 -148q61 -55 136 -78.5t148 -23.5q70 0 138.5 21t126.5 57q49 29 91 62t69 57h40v-356q-59 -26 -138 -57.5t-169 -48.5q0 -15 1.5 -38t1.5 -41q0 -162 -99.5 -249.5t-259.5 -87.5q-35 0 -101.5 5.5t-111.5 18.5v200h23q24 -11 70 -23t88 -12q80 0 121.5 40t41.5 120v48 q-167 1 -305.5 49.5t-238.5 145.5q-100 96 -155.5 240t-55.5 334z" />
<glyph unicode="&#xc8;" horiz-adv-x="1399" d="M190 0v1489h1077v-288h-695v-257h645v-288h-645v-368h695v-288h-1077zM381 2029v20h351l247 -393h-246z" />
<glyph unicode="&#xc9;" horiz-adv-x="1399" d="M190 0v1489h1077v-288h-695v-257h645v-288h-645v-368h695v-288h-1077zM501 1656l247 393h351v-20l-352 -373h-246z" />
<glyph unicode="&#xca;" horiz-adv-x="1399" d="M190 0v1489h1077v-288h-695v-257h645v-288h-645v-368h695v-288h-1077zM282 1656l321 393h251l321 -393h-264l-185 219l-184 -219h-260z" />
<glyph unicode="&#xcb;" horiz-adv-x="1399" d="M190 0v1489h1077v-288h-695v-257h645v-288h-645v-368h695v-288h-1077zM311 1656v273h297v-273h-297zM848 1656v273h297v-273h-297z" />
<glyph unicode="&#xcc;" horiz-adv-x="1118" d="M123 0v264h244v961h-244v264h872v-264h-244v-961h244v-264h-872zM194 2029v20h351l247 -393h-246z" />
<glyph unicode="&#xcd;" horiz-adv-x="1118" d="M123 0v264h244v961h-244v264h872v-264h-244v-961h244v-264h-872zM315 1656l247 393h351v-20l-352 -373h-246z" />
<glyph unicode="&#xce;" horiz-adv-x="1118" d="M113 1656l321 393h251l321 -393h-264l-185 219l-184 -219h-260zM123 0v264h244v961h-244v264h872v-264h-244v-961h244v-264h-872z" />
<glyph unicode="&#xcf;" horiz-adv-x="1118" d="M123 0v264h244v961h-244v264h872v-264h-244v-961h244v-264h-872zM142 1656v273h297v-273h-297zM679 1656v273h297v-273h-297z" />
<glyph unicode="&#xd0;" horiz-adv-x="1700" d="M28 679v233h162v577h540q182 0 314 -30.5t222 -86.5q154 -94 242.5 -253.5t88.5 -375.5q0 -208 -95 -372.5t-240 -252.5q-109 -66 -239 -92t-308 -26h-525v679h-162zM574 279h97q137 0 201 12.5t125 45.5q105 60 154 160.5t49 248.5q0 147 -53.5 251.5t-169.5 163.5 q-59 29 -120.5 39.5t-185.5 10.5h-97v-299h317v-233h-317v-400z" />
<glyph unicode="&#xd1;" horiz-adv-x="1734" d="M190 0v1489h459l543 -853v853h352v-1489h-370l-632 1022v-1022h-352zM425 1653q2 46 2.5 64.5t5 45t7 34.5t14.5 28t21.5 31t32.5 38q59 68 84 79t117 11q36 0 47.5 -2t43.5 -16q43 -17 79 -38q37 -20 69 -38q24 -13 31.5 -15t27.5 -2q36 0 44.5 4t21.5 28t16 34.5 t4 51.5h219q-3 -52 -4 -72t-6 -49t-7.5 -37.5t-14 -28t-20 -29.5t-30.5 -35q-55 -61 -80.5 -71t-122.5 -10q-35 0 -46.5 2.5t-42.5 16.5q-43 18 -78 39q-31 19 -68 39q-29 14 -36.5 16.5t-26.5 2.5q-37 0 -45 -4t-20 -28q-10 -18 -13 -26.5t-4 -20t-3 -43.5h-219z" />
<glyph unicode="&#xd2;" horiz-adv-x="1741" d="M103 744q0 220 11 284q14 81 70 151q30 38 123 133q43 43 63 62t47.5 47.5t48 37.5t40.5 24.5t50 18.5t52 9.5t71 6.5t82.5 1t108.5 1t108.5 -1t82 -1t70.5 -6.5t52 -9.5t50.5 -18.5t40.5 -24.5t48 -37.5t48 -47.5t63 -62q113 -115 143 -159q46 -66 56 -163q6 -59 6 -246 q0 -75 -1 -108t-1 -81.5t-6.5 -70.5t-9 -52t-18 -50.5t-24.5 -41t-36.5 -49t-46 -49t-61.5 -64t-63 -62.5t-47.5 -47.5t-48 -38t-40.5 -25t-50 -18.5t-52.5 -9.5t-71.5 -6.5t-82 -1t-109 -1q-75 0 -108.5 1t-82.5 1t-71 6.5t-52 9.5t-50 18.5t-40.5 25t-48 38t-47.5 47.5 t-63 62.5t-61.5 64t-46 49t-36.5 49t-24.5 41t-18 50.5t-9 52t-6.5 70.5t-1 81.5t-1 108zM502 744q0 -100 4 -128t26.5 -98.5t33 -89.5t47.5 -63t52 -55t65 -32t68 -24.5t73 -3.5t73 3.5t68 25t65 32.5t52 56q42 51 52.5 71t30.5 89.5t23.5 96.5t3.5 121q0 101 -4 129 t-27 99t-33 90t-48 62q-38 45 -53 56t-64 31q-37 15 -52.5 19.5t-31 6t-55.5 1.5q-55 0 -72 -3.5t-65.5 -22.5t-63 -30t-55.5 -56q-37 -42 -47.5 -61.5t-34 -93t-27.5 -102t-4 -126.5zM517 2029v20h351l247 -393h-246z" />
<glyph unicode="&#xd3;" horiz-adv-x="1741" d="M103 744q0 220 11 284q14 81 70 151q30 38 123 133q43 43 63 62t47.5 47.5t48 37.5t40.5 24.5t50 18.5t52 9.5t71 6.5t82.5 1t108.5 1t108.5 -1t82 -1t70.5 -6.5t52 -9.5t50.5 -18.5t40.5 -24.5t48 -37.5t48 -47.5t63 -62q113 -115 143 -159q46 -66 56 -163q6 -59 6 -246 q0 -75 -1 -108t-1 -81.5t-6.5 -70.5t-9 -52t-18 -50.5t-24.5 -41t-36.5 -49t-46 -49t-61.5 -64t-63 -62.5t-47.5 -47.5t-48 -38t-40.5 -25t-50 -18.5t-52.5 -9.5t-71.5 -6.5t-82 -1t-109 -1q-75 0 -108.5 1t-82.5 1t-71 6.5t-52 9.5t-50 18.5t-40.5 25t-48 38t-47.5 47.5 t-63 62.5t-61.5 64t-46 49t-36.5 49t-24.5 41t-18 50.5t-9 52t-6.5 70.5t-1 81.5t-1 108zM502 744q0 -100 4 -128t26.5 -98.5t33 -89.5t47.5 -63t52 -55t65 -32t68 -24.5t73 -3.5t73 3.5t68 25t65 32.5t52 56q42 51 52.5 71t30.5 89.5t23.5 96.5t3.5 121q0 101 -4 129 t-27 99t-33 90t-48 62q-38 45 -53 56t-64 31q-37 15 -52.5 19.5t-31 6t-55.5 1.5q-55 0 -72 -3.5t-65.5 -22.5t-63 -30t-55.5 -56q-37 -42 -47.5 -61.5t-34 -93t-27.5 -102t-4 -126.5zM626 1656l247 393h351v-20l-352 -373h-246z" />
<glyph unicode="&#xd4;" horiz-adv-x="1741" d="M103 744q0 220 11 284q14 81 70 151q30 38 123 133q43 43 63 62t47.5 47.5t48 37.5t40.5 24.5t50 18.5t52 9.5t71 6.5t82.5 1t108.5 1t108.5 -1t82 -1t70.5 -6.5t52 -9.5t50.5 -18.5t40.5 -24.5t48 -37.5t48 -47.5t63 -62q113 -115 143 -159q46 -66 56 -163q6 -59 6 -246 q0 -75 -1 -108t-1 -81.5t-6.5 -70.5t-9 -52t-18 -50.5t-24.5 -41t-36.5 -49t-46 -49t-61.5 -64t-63 -62.5t-47.5 -47.5t-48 -38t-40.5 -25t-50 -18.5t-52.5 -9.5t-71.5 -6.5t-82 -1t-109 -1q-75 0 -108.5 1t-82.5 1t-71 6.5t-52 9.5t-50 18.5t-40.5 25t-48 38t-47.5 47.5 t-63 62.5t-61.5 64t-46 49t-36.5 49t-24.5 41t-18 50.5t-9 52t-6.5 70.5t-1 81.5t-1 108zM425 1656l321 393h251l321 -393h-264l-185 219l-184 -219h-260zM502 744q0 -100 4 -128t26.5 -98.5t33 -89.5t47.5 -63t52 -55t65 -32t68 -24.5t73 -3.5t73 3.5t68 25t65 32.5t52 56 q42 51 52.5 71t30.5 89.5t23.5 96.5t3.5 121q0 101 -4 129t-27 99t-33 90t-48 62q-38 45 -53 56t-64 31q-37 15 -52.5 19.5t-31 6t-55.5 1.5q-55 0 -72 -3.5t-65.5 -22.5t-63 -30t-55.5 -56q-37 -42 -47.5 -61.5t-34 -93t-27.5 -102t-4 -126.5z" />
<glyph unicode="&#xd5;" horiz-adv-x="1741" d="M103 744q0 220 11 284q14 81 70 151q30 38 123 133q43 43 63 62t47.5 47.5t48 37.5t40.5 24.5t50 18.5t52 9.5t71 6.5t82.5 1t108.5 1t108.5 -1t82 -1t70.5 -6.5t52 -9.5t50.5 -18.5t40.5 -24.5t48 -37.5t48 -47.5t63 -62q113 -115 143 -159q46 -66 56 -163q6 -59 6 -246 q0 -75 -1 -108t-1 -81.5t-6.5 -70.5t-9 -52t-18 -50.5t-24.5 -41t-36.5 -49t-46 -49t-61.5 -64t-63 -62.5t-47.5 -47.5t-48 -38t-40.5 -25t-50 -18.5t-52.5 -9.5t-71.5 -6.5t-82 -1t-109 -1q-75 0 -108.5 1t-82.5 1t-71 6.5t-52 9.5t-50 18.5t-40.5 25t-48 38t-47.5 47.5 t-63 62.5t-61.5 64t-46 49t-36.5 49t-24.5 41t-18 50.5t-9 52t-6.5 70.5t-1 81.5t-1 108zM428 1653q2 46 2.5 64.5t5 45t7 34.5t14.5 28t21.5 31t33.5 38q58 68 83 79t117 11q36 0 47.5 -2t43.5 -16q43 -17 79 -38q37 -20 69 -38q24 -13 31.5 -15t27.5 -2q36 0 44 4t22 28 t16 34.5t4 51.5h219q-3 -52 -4 -72t-6 -49t-7.5 -37.5t-14 -28t-20 -29.5t-31.5 -35q-54 -61 -79 -71t-123 -10q-35 0 -46.5 2.5t-43.5 16.5q-42 18 -77 39q-31 19 -69 39q-20 10 -28 13.5t-14 4.5t-20 1q-37 0 -45 -4t-20.5 -28t-15 -35.5t-4.5 -54.5h-219zM502 744 q0 -100 4 -128t26.5 -98.5t33 -89.5t47.5 -63t52 -55t65 -32t68 -24.5t73 -3.5t73 3.5t68 25t65 32.5t52 56q42 51 52.5 71t30.5 89.5t23.5 96.5t3.5 121q0 101 -4 129t-27 99t-33 90t-48 62q-38 45 -53 56t-64 31q-37 15 -52.5 19.5t-31 6t-55.5 1.5q-55 0 -72 -3.5 t-65.5 -22.5t-63 -30t-55.5 -56q-37 -42 -47.5 -61.5t-34 -93t-27.5 -102t-4 -126.5z" />
<glyph unicode="&#xd6;" horiz-adv-x="1741" d="M103 744q0 220 11 284q14 81 70 151q30 38 123 133q43 43 63 62t47.5 47.5t48 37.5t40.5 24.5t50 18.5t52 9.5t71 6.5t82.5 1t108.5 1t108.5 -1t82 -1t70.5 -6.5t52 -9.5t50.5 -18.5t40.5 -24.5t48 -37.5t48 -47.5t63 -62q113 -115 143 -159q46 -66 56 -163q6 -59 6 -246 q0 -75 -1 -108t-1 -81.5t-6.5 -70.5t-9 -52t-18 -50.5t-24.5 -41t-36.5 -49t-46 -49t-61.5 -64t-63 -62.5t-47.5 -47.5t-48 -38t-40.5 -25t-50 -18.5t-52.5 -9.5t-71.5 -6.5t-82 -1t-109 -1q-75 0 -108.5 1t-82.5 1t-71 6.5t-52 9.5t-50 18.5t-40.5 25t-48 38t-47.5 47.5 t-63 62.5t-61.5 64t-46 49t-36.5 49t-24.5 41t-18 50.5t-9 52t-6.5 70.5t-1 81.5t-1 108zM454 1656v273h297v-273h-297zM502 744q0 -100 4 -128t26.5 -98.5t33 -89.5t47.5 -63t52 -55t65 -32t68 -24.5t73 -3.5t73 3.5t68 25t65 32.5t52 56q42 51 52.5 71t30.5 89.5 t23.5 96.5t3.5 121q0 101 -4 129t-27 99t-33 90t-48 62q-38 45 -53 56t-64 31q-37 15 -52.5 19.5t-31 6t-55.5 1.5q-55 0 -72 -3.5t-65.5 -22.5t-63 -30t-55.5 -56q-37 -42 -47.5 -61.5t-34 -93t-27.5 -102t-4 -126.5zM991 1656v273h297v-273h-297z" />
<glyph unicode="&#xd7;" horiz-adv-x="1776" d="M264 225l437 437l-437 437l187 187l437 -437l437 437l187 -187l-437 -437l437 -437l-187 -187l-437 437l-437 -437z" />
<glyph unicode="&#xd8;" horiz-adv-x="1741" d="M101 -142l228 304q-108 102 -167 250.5t-59 331.5q0 359 204 567.5t563 208.5q119 0 217.5 -23t184.5 -69l123 164h210l-196 -261q109 -100 169 -249.5t60 -337.5q0 -356 -204 -565.5t-564 -209.5q-115 0 -219.5 25t-187.5 71l-155 -207h-207zM494 744q0 -90 14 -166.5 t39 -132.5l538 732q-47 36 -101.5 53t-112.5 17q-78 0 -141 -25t-120 -89q-52 -57 -84 -154.5t-32 -234.5zM651 316q45 -36 101 -55t119 -19q72 0 143.5 29.5t120.5 89.5q57 68 84.5 163t27.5 221q0 84 -15.5 168t-39.5 136z" />
<glyph unicode="&#xd9;" horiz-adv-x="1663" d="M169 538v951h386v-929q0 -116 8 -145t57 -86q28 -33 39 -44.5t37 -21t48.5 -10t86.5 -0.5q108 0 134.5 9t76 64t58 84t8.5 150v929h386v-950v-75t-2 -60.5t-2 -50t-7 -40t-9.5 -34.5t-16 -29.5t-21 -29.5t-29 -29.5t-35.5 -34.5t-46 -40q-39 -34 -55.5 -49t-47.5 -35.5 t-41 -27t-44.5 -16.5t-50 -11.5t-65.5 -4.5t-82 -3h-109q-182 0 -245.5 8t-109.5 32.5t-140 106.5q-44 39 -62.5 57t-43 41t-31 45t-16.5 42t-11 61t-2 72t-1 104zM514 2029v20h351l247 -393h-246z" />
<glyph unicode="&#xda;" horiz-adv-x="1663" d="M169 538v951h386v-929q0 -116 8 -145t57 -86q28 -33 39 -44.5t37 -21t48.5 -10t86.5 -0.5q108 0 134.5 9t76 64t58 84t8.5 150v929h386v-950v-75t-2 -60.5t-2 -50t-7 -40t-9.5 -34.5t-16 -29.5t-21 -29.5t-29 -29.5t-35.5 -34.5t-46 -40q-39 -34 -55.5 -49t-47.5 -35.5 t-41 -27t-44.5 -16.5t-50 -11.5t-65.5 -4.5t-82 -3h-109q-182 0 -245.5 8t-109.5 32.5t-140 106.5q-44 39 -62.5 57t-43 41t-31 45t-16.5 42t-11 61t-2 72t-1 104zM526 1656l247 393h351v-20l-352 -373h-246z" />
<glyph unicode="&#xdb;" horiz-adv-x="1663" d="M169 538v951h386v-929q0 -116 8 -145t57 -86q28 -33 39 -44.5t37 -21t48.5 -10t86.5 -0.5q108 0 134.5 9t76 64t58 84t8.5 150v929h386v-950v-75t-2 -60.5t-2 -50t-7 -40t-9.5 -34.5t-16 -29.5t-21 -29.5t-29 -29.5t-35.5 -34.5t-46 -40q-39 -34 -55.5 -49t-47.5 -35.5 t-41 -27t-44.5 -16.5t-50 -11.5t-65.5 -4.5t-82 -3h-109q-182 0 -245.5 8t-109.5 32.5t-140 106.5q-44 39 -62.5 57t-43 41t-31 45t-16.5 42t-11 61t-2 72t-1 104zM386 1656l321 393h251l321 -393h-264l-185 219l-184 -219h-260z" />
<glyph unicode="&#xdc;" horiz-adv-x="1663" d="M169 538v951h386v-929q0 -116 8 -145t57 -86q28 -33 39 -44.5t37 -21t48.5 -10t86.5 -0.5q108 0 134.5 9t76 64t58 84t8.5 150v929h386v-950v-75t-2 -60.5t-2 -50t-7 -40t-9.5 -34.5t-16 -29.5t-21 -29.5t-29 -29.5t-35.5 -34.5t-46 -40q-39 -34 -55.5 -49t-47.5 -35.5 t-41 -27t-44.5 -16.5t-50 -11.5t-65.5 -4.5t-82 -3h-109q-182 0 -245.5 8t-109.5 32.5t-140 106.5q-44 39 -62.5 57t-43 41t-31 45t-16.5 42t-11 61t-2 72t-1 104zM415 1656v273h297v-273h-297zM952 1656v273h297v-273h-297z" />
<glyph unicode="&#xdd;" horiz-adv-x="1509" d="M9 1489h436l322 -576l311 576h422l-549 -913v-576h-384v558zM485 1656l247 393h351v-20l-352 -373h-246z" />
<glyph unicode="&#xde;" horiz-adv-x="1505" d="M190 0v1489h384v-225h234q143 0 241.5 -23.5t180.5 -74.5q92 -58 140.5 -151t48.5 -221q0 -102 -35.5 -196.5t-102.5 -159.5q-81 -79 -196.5 -127.5t-285.5 -48.5h-225v-262h-384zM574 540h94q103 0 170.5 10t113.5 49q38 33 54 74.5t16 111.5q0 65 -32 110t-81 63 q-61 22 -115 25t-151 3h-69v-446z" />
<glyph unicode="&#xdf;" horiz-adv-x="1460" d="M170 0v1056q0 244 151 377t414 133q141 0 237.5 -28t163.5 -78q64 -49 96 -113t32 -137q0 -136 -83 -230.5t-208 -111.5v-9q186 -26 296.5 -130t110.5 -261q0 -238 -151.5 -360t-407.5 -122q-35 0 -91.5 5t-81.5 9v272h40q17 -5 49.5 -11.5t65.5 -6.5q89 0 149 62t60 173 q0 113 -78 160.5t-241 47.5v267q105 0 158.5 49t53.5 151q0 78 -43.5 120t-132.5 42q-104 0 -151.5 -64t-47.5 -176v-1086h-360z" />
<glyph unicode="&#xe0;" horiz-adv-x="1368" d="M86 256.5v65.5q0 92 7 117.5t48 83.5t60.5 73.5t95.5 49.5q75 34 106 42t142 22q148 19 307 28v6q0 70 -9.5 86t-66.5 42.5t-85 31t-139 4.5q-67 0 -90.5 -4t-99.5 -28q-101 -31 -145 -48h-33v271q43 11 66 15.5t119.5 20t128.5 18t129 2.5q171 0 229.5 -5.5t98.5 -21 t115 -68.5q103 -70 120 -107t17 -189v-764h-357v119q-29 -22 -72 -53t-81 -49q-40 -18 -53.5 -22.5t-56.5 -13t-58.5 -10t-66.5 -1.5h-68.5t-48 4.5t-37 7.5t-32 18t-36.5 27t-46 42t-46 42t-29.5 33.5t-20 30t-8 36t-4.5 46zM334 1656v20h351l247 -393h-246zM452 351 q0 -35 6 -57q4 -16 8 -21.5t22 -20.5q17 -15 24 -18.5t31 -11t36.5 -8.5t63.5 -1q41 0 54.5 3t55 19t54 23.5t43.5 34.5v234q-73 -6 -158 -17q-64 -7 -80 -10t-49 -14q-41 -13 -51 -19t-31.5 -30.5t-25 -35t-3.5 -50.5z" />
<glyph unicode="&#xe1;" horiz-adv-x="1368" d="M86 256.5v65.5q0 92 7 117.5t48 83.5t60.5 73.5t95.5 49.5q75 34 106 42t142 22q148 19 307 28v6q0 70 -9.5 86t-66.5 42.5t-85 31t-139 4.5q-67 0 -90.5 -4t-99.5 -28q-101 -31 -145 -48h-33v271q43 11 66 15.5t119.5 20t128.5 18t129 2.5q171 0 229.5 -5.5t98.5 -21 t115 -68.5q103 -70 120 -107t17 -189v-764h-357v119q-29 -22 -72 -53t-81 -49q-40 -18 -53.5 -22.5t-56.5 -13t-58.5 -10t-66.5 -1.5h-68.5t-48 4.5t-37 7.5t-32 18t-36.5 27t-46 42t-46 42t-29.5 33.5t-20 30t-8 36t-4.5 46zM445 1283l247 393h351v-20l-352 -373h-246z M452 351q0 -35 6 -57q4 -16 8 -21.5t22 -20.5q17 -15 24 -18.5t31 -11t36.5 -8.5t63.5 -1q41 0 54.5 3t55 19t54 23.5t43.5 34.5v234q-73 -6 -158 -17q-64 -7 -80 -10t-49 -14q-41 -13 -51 -19t-31.5 -30.5t-25 -35t-3.5 -50.5z" />
<glyph unicode="&#xe2;" horiz-adv-x="1368" d="M86 256.5v65.5q0 92 7 117.5t48 83.5t60.5 73.5t95.5 49.5q75 34 106 42t142 22q148 19 307 28v6q0 70 -9.5 86t-66.5 42.5t-85 31t-139 4.5q-67 0 -90.5 -4t-99.5 -28q-101 -31 -145 -48h-33v271q43 11 66 15.5t119.5 20t128.5 18t129 2.5q171 0 229.5 -5.5t98.5 -21 t115 -68.5q103 -70 120 -107t17 -189v-764h-357v119q-29 -22 -72 -53t-81 -49q-40 -18 -53.5 -22.5t-56.5 -13t-58.5 -10t-66.5 -1.5h-68.5t-48 4.5t-37 7.5t-32 18t-36.5 27t-46 42t-46 42t-29.5 33.5t-20 30t-8 36t-4.5 46zM212 1283l321 393h251l321 -393h-264l-185 219 l-184 -219h-260zM452 351q0 -35 6 -57q4 -16 8 -21.5t22 -20.5q17 -15 24 -18.5t31 -11t36.5 -8.5t63.5 -1q41 0 54.5 3t55 19t54 23.5t43.5 34.5v234q-73 -6 -158 -17q-64 -7 -80 -10t-49 -14q-41 -13 -51 -19t-31.5 -30.5t-25 -35t-3.5 -50.5z" />
<glyph unicode="&#xe3;" horiz-adv-x="1368" d="M86 256.5v65.5q0 92 7 117.5t48 83.5t60.5 73.5t95.5 49.5q75 34 106 42t142 22q148 19 307 28v6q0 70 -9.5 86t-66.5 42.5t-85 31t-139 4.5q-67 0 -90.5 -4t-99.5 -28q-101 -31 -145 -48h-33v271q43 11 66 15.5t119.5 20t128.5 18t129 2.5q171 0 229.5 -5.5t98.5 -21 t115 -68.5q103 -70 120 -107t17 -189v-764h-357v119q-29 -22 -72 -53t-81 -49q-40 -18 -53.5 -22.5t-56.5 -13t-58.5 -10t-66.5 -1.5h-68.5t-48 4.5t-37 7.5t-32 18t-36.5 27t-46 42t-46 42t-29.5 33.5t-20 30t-8 36t-4.5 46zM229 1280q2 46 2.5 64.5t5 45t7 34.5t14.5 28 t21.5 30.5t32.5 38.5q59 68 84 79t117 11q36 0 47.5 -2t43.5 -15q43 -18 79 -39q37 -20 69 -37q24 -14 31.5 -16t27.5 -2q36 0 44.5 4t21.5 28t16 35t4 51h219q-2 -40 -3 -56.5t-4 -42.5t-4 -33.5t-7 -25t-9 -22.5t-13.5 -20.5t-18 -23t-23.5 -26.5q-55 -62 -80.5 -72 t-122.5 -10q-35 0 -46.5 2.5t-42.5 15.5q-43 19 -78 40q-31 19 -68 38q-29 15 -36.5 17.5t-26.5 2.5q-37 0 -45 -4t-20.5 -28t-15 -35t-4.5 -55h-219zM452 351q0 -35 6 -57q4 -16 8 -21.5t22 -20.5q17 -15 24 -18.5t31 -11t36.5 -8.5t63.5 -1q41 0 54.5 3t55 19t54 23.5 t43.5 34.5v234q-73 -6 -158 -17q-64 -7 -80 -10t-49 -14q-41 -13 -51 -19t-31.5 -30.5t-25 -35t-3.5 -50.5z" />
<glyph unicode="&#xe4;" horiz-adv-x="1368" d="M86 256.5v65.5q0 92 7 117.5t48 83.5t60.5 73.5t95.5 49.5q75 34 106 42t142 22q148 19 307 28v6q0 70 -9.5 86t-66.5 42.5t-85 31t-139 4.5q-67 0 -90.5 -4t-99.5 -28q-101 -31 -145 -48h-33v271q43 11 66 15.5t119.5 20t128.5 18t129 2.5q171 0 229.5 -5.5t98.5 -21 t115 -68.5q103 -70 120 -107t17 -189v-764h-357v119q-29 -22 -72 -53t-81 -49q-40 -18 -53.5 -22.5t-56.5 -13t-58.5 -10t-66.5 -1.5h-68.5t-48 4.5t-37 7.5t-32 18t-36.5 27t-46 42t-46 42t-29.5 33.5t-20 30t-8 36t-4.5 46zM256 1283v273h297v-273h-297zM452 351 q0 -35 6 -57q4 -16 8 -21.5t22 -20.5q17 -15 24 -18.5t31 -11t36.5 -8.5t63.5 -1q41 0 54.5 3t55 19t54 23.5t43.5 34.5v234q-73 -6 -158 -17q-64 -7 -80 -10t-49 -14q-41 -13 -51 -19t-31.5 -30.5t-25 -35t-3.5 -50.5zM793 1283v273h297v-273h-297z" />
<glyph unicode="&#xe5;" horiz-adv-x="1368" d="M86 322q0 123 55 201t156 123q100 45 248 64t307 28v6q0 93 -76 128.5t-224 35.5q-89 0 -190 -31.5t-145 -48.5h-33v271q54 14 138.5 29t213.5 22q-79 36 -127.5 108t-48.5 163q0 129 92.5 215t225.5 86q134 0 226 -86.5t92 -214.5q0 -97 -53 -171t-137 -106 q200 -23 300.5 -112.5t100.5 -267.5v-764h-357v119q-29 -22 -72 -53t-81 -49q-53 -24 -110 -35.5t-125 -11.5q-160 0 -268 99t-108 253zM452 351q0 -35 6 -57t30 -42q23 -20 55 -29.5t100 -9.5q54 0 109.5 22t97.5 58v234q-73 -6 -158 -16.5t-129 -24.5q-54 -17 -82.5 -49.5 t-28.5 -85.5zM542 1420q0 -63 38 -104.5t98 -41.5t98 42t38 104t-38.5 105t-97.5 43t-97.5 -42.5t-38.5 -105.5z" />
<glyph unicode="&#xe6;" horiz-adv-x="2085" d="M86 322q0 126 56 202.5t155 121.5q96 43 240.5 63t304.5 29v6q0 93 -70.5 128.5t-219.5 35.5q-89 0 -190 -31.5t-145 -48.5h-33v271q57 15 185.5 35.5t257.5 20.5q153 0 259.5 -29.5t178.5 -81.5q77 50 178 82t216 32q271 0 406.5 -138.5t135.5 -398.5v-126h-811 q5 -79 35.5 -131t79.5 -83t113 -44.5t139 -13.5q111 0 215.5 40t167.5 89h40v-289q-105 -43 -212.5 -68t-249.5 -25q-153 0 -293 44.5t-248 139.5q-31 -23 -84.5 -60t-103.5 -60q-65 -29 -137.5 -46.5t-182.5 -17.5q-170 0 -276.5 98.5t-106.5 253.5zM452 351q0 -29 7 -55 t28 -44q21 -20 59.5 -29.5t92.5 -9.5q60 0 121.5 25.5t116.5 67.5q-26 64 -33.5 125.5t-7.5 94.5q-83 -7 -151.5 -15t-122.5 -26q-51 -16 -80.5 -48.5t-29.5 -85.5zM1189 706h454q-3 111 -54.5 169t-160.5 58q-101 0 -166 -54t-73 -173z" />
<glyph unicode="&#xe7;" horiz-adv-x="1205" d="M88 557q0 157 52.5 271t146.5 189q91 71 210 104t247 33q115 0 212 -25t181 -65v-307h-51q-21 18 -50.5 42t-72.5 47q-41 22 -90 36.5t-114 14.5q-144 0 -221.5 -91.5t-77.5 -248.5q0 -162 79.5 -246t225.5 -84q68 0 122.5 15.5t90.5 36.5q34 20 60 42t48 43h51v-307 q-36 -15 -85 -33.5t-102 -29.5q0 -16 1.5 -39t1.5 -41q0 -162 -99.5 -249.5t-259.5 -87.5q-35 0 -101.5 5.5t-111.5 18.5v200h23q24 -11 70 -23t88 -12q80 0 122 40t42 120v47q-140 3 -257.5 40t-202.5 109q-84 72 -131 180.5t-47 254.5z" />
<glyph unicode="&#xe8;" horiz-adv-x="1360" d="M88 435v120q0 74 1 105.5t2 73t11 62t17 44t32 48.5t43.5 44.5t64 63t66 61t47 41.5t51 30.5t46.5 16t66.5 10.5t78 2t112.5 1q152 0 205.5 -7.5t91.5 -31t115 -99.5q29 -30 41.5 -43.5t31 -32t25 -33t16.5 -28.5t12 -35.5t6.5 -37.5t4.5 -51t0.5 -59t0.5 -79v-126h-824 q2 -25 2.5 -36t2.5 -29t2.5 -24t5 -19t6 -16.5t9 -14t11.5 -14t16.5 -14t20 -16.5t24.5 -19q70 -52 104 -61t169 -9q85 0 113 5t108 36t101 42t68 46h40v-289q-91 -37 -120 -45.5t-110 -25.5q-81 -16 -111 -19t-128 -3h-112.5t-85.5 3t-67.5 4.5t-52 12t-47 17t-43.5 28 t-50.5 36.5l-59.5 51q-55 46 -77 64.5t-49 53.5t-32.5 49t-13.5 63t-8 83zM344 1656v20h351l247 -393h-246zM451 706h467q-2 85 -9 106t-47 64t-60.5 50t-104.5 7q-78 0 -99.5 -6.5t-71.5 -47.5q-24 -19 -33.5 -28.5t-19 -20t-12.5 -29t-5 -35.5t-5 -60z" />
<glyph unicode="&#xe9;" horiz-adv-x="1360" d="M88 435v120q0 74 1 105.5t2 73t11 62t17 44t32 48.5t43.5 44.5t64 63t66 61t47 41.5t51 30.5t46.5 16t66.5 10.5t78 2t112.5 1q152 0 205.5 -7.5t91.5 -31t115 -99.5q29 -30 41.5 -43.5t31 -32t25 -33t16.5 -28.5t12 -35.5t6.5 -37.5t4.5 -51t0.5 -59t0.5 -79v-126h-824 q2 -25 2.5 -36t2.5 -29t2.5 -24t5 -19t6 -16.5t9 -14t11.5 -14t16.5 -14t20 -16.5t24.5 -19q70 -52 104 -61t169 -9q85 0 113 5t108 36t101 42t68 46h40v-289q-91 -37 -120 -45.5t-110 -25.5q-81 -16 -111 -19t-128 -3h-112.5t-85.5 3t-67.5 4.5t-52 12t-47 17t-43.5 28 t-50.5 36.5l-59.5 51q-55 46 -77 64.5t-49 53.5t-32.5 49t-13.5 63t-8 83zM451 706h467q-2 85 -9 106t-47 64t-60.5 50t-104.5 7q-78 0 -99.5 -6.5t-71.5 -47.5q-24 -19 -33.5 -28.5t-19 -20t-12.5 -29t-5 -35.5t-5 -60zM465 1283l247 393h351v-20l-352 -373h-246z" />
<glyph unicode="&#xea;" horiz-adv-x="1360" d="M88 435v120q0 74 1 105.5t2 73t11 62t17 44t32 48.5t43.5 44.5t64 63t66 61t47 41.5t51 30.5t46.5 16t66.5 10.5t78 2t112.5 1q152 0 205.5 -7.5t91.5 -31t115 -99.5q29 -30 41.5 -43.5t31 -32t25 -33t16.5 -28.5t12 -35.5t6.5 -37.5t4.5 -51t0.5 -59t0.5 -79v-126h-824 q2 -25 2.5 -36t2.5 -29t2.5 -24t5 -19t6 -16.5t9 -14t11.5 -14t16.5 -14t20 -16.5t24.5 -19q70 -52 104 -61t169 -9q85 0 113 5t108 36t101 42t68 46h40v-289q-91 -37 -120 -45.5t-110 -25.5q-81 -16 -111 -19t-128 -3h-112.5t-85.5 3t-67.5 4.5t-52 12t-47 17t-43.5 28 t-50.5 36.5l-59.5 51q-55 46 -77 64.5t-49 53.5t-32.5 49t-13.5 63t-8 83zM270 1283l321 393h251l321 -393h-264l-185 219l-184 -219h-260zM451 706h467q-2 85 -9 106t-47 64t-60.5 50t-104.5 7q-78 0 -99.5 -6.5t-71.5 -47.5q-24 -19 -33.5 -28.5t-19 -20t-12.5 -29 t-5 -35.5t-5 -60z" />
<glyph unicode="&#xeb;" horiz-adv-x="1360" d="M88 435v120q0 74 1 105.5t2 73t11 62t17 44t32 48.5t43.5 44.5t64 63t66 61t47 41.5t51 30.5t46.5 16t66.5 10.5t78 2t112.5 1q152 0 205.5 -7.5t91.5 -31t115 -99.5q29 -30 41.5 -43.5t31 -32t25 -33t16.5 -28.5t12 -35.5t6.5 -37.5t4.5 -51t0.5 -59t0.5 -79v-126h-824 q2 -25 2.5 -36t2.5 -29t2.5 -24t5 -19t6 -16.5t9 -14t11.5 -14t16.5 -14t20 -16.5t24.5 -19q70 -52 104 -61t169 -9q85 0 113 5t108 36t101 42t68 46h40v-289q-91 -37 -120 -45.5t-110 -25.5q-81 -16 -111 -19t-128 -3h-112.5t-85.5 3t-67.5 4.5t-52 12t-47 17t-43.5 28 t-50.5 36.5l-59.5 51q-55 46 -77 64.5t-49 53.5t-32.5 49t-13.5 63t-8 83zM290 1283v273h297v-273h-297zM451 706h467q-2 85 -9 106t-47 64t-60.5 50t-104.5 7q-78 0 -99.5 -6.5t-71.5 -47.5q-24 -19 -33.5 -28.5t-19 -20t-12.5 -29t-5 -35.5t-5 -60zM827 1283v273h297v-273 h-297z" />
<glyph unicode="&#xec;" horiz-adv-x="700" d="M-6 1656v20h351l247 -393h-246zM170 0v1123h360v-1123h-360z" />
<glyph unicode="&#xed;" horiz-adv-x="700" d="M104 1283l247 393h351v-20l-352 -373h-246zM170 0v1123h360v-1123h-360z" />
<glyph unicode="&#xee;" horiz-adv-x="700" d="M-11 1283l234 393h255l234 -393h-239l-125 213l-124 -213h-235zM170 0v1123h360v-1123h-360z" />
<glyph unicode="&#xef;" horiz-adv-x="700" d="M-18 1283v273h277v-273h-277zM170 0v1123h360v-1123h-360zM441 1283v273h277v-273h-277z" />
<glyph unicode="&#xf0;" horiz-adv-x="1391" d="M87 517q0 122 43.5 217.5t119.5 163.5q75 65 176 99t213 34q77 0 140 -16.5t115 -41.5q-22 57 -70 125.5t-109 126.5l-335 -132l-77 176l254 97q-80 63 -150.5 105.5t-123.5 59.5v25h455q11 -4 39 -23t76 -53l228 94l76 -175l-143 -59q55 -57 107 -127t92 -157 q38 -83 61 -182t23 -214q0 -324 -157 -509.5t-454 -185.5q-280 0 -439.5 148t-159.5 404zM462 523q0 -142 59.5 -224.5t175.5 -82.5q115 0 173 93.5t58 297.5q0 26 -2.5 57.5t-5.5 47.5q-50 39 -103.5 58.5t-113.5 19.5q-120 0 -180.5 -69t-60.5 -198z" />
<glyph unicode="&#xf1;" horiz-adv-x="1459" d="M170 0v1123h360v-124q72 56 95 70.5t89.5 44.5t91 35t105.5 5q101 0 137 -6t63.5 -23.5t84.5 -76.5q27 -28 38 -41t26 -29.5t19 -33.5t10.5 -31.5t7 -46t1 -55.5t0.5 -80v-731h-362v557q0 68 -7 135q-5 51 -8 63.5t-16 36.5q-15 28 -22.5 34.5t-36 19.5t-42 15t-65.5 2 q-37 0 -49.5 -2t-50 -14t-51.5 -18.5t-58 -32.5v-796h-360zM297 1280q1 35 1.5 50t3 38.5t3.5 30.5t7 24t9.5 22t14.5 21t18.5 25t25.5 30q59 68 84 79t117 11q36 0 47.5 -2t43.5 -15q43 -18 79 -39q37 -20 69 -37q24 -14 31.5 -16t27.5 -2q36 0 44.5 4t21.5 28 q14 24 16.5 35t3.5 51h219q-2 -40 -3 -56.5t-4 -42.5t-4 -33.5t-7 -25t-9 -22.5t-13.5 -20.5t-18 -23t-23.5 -26.5q-55 -62 -80.5 -72t-122.5 -10q-35 0 -46.5 2.5t-42.5 15.5q-43 19 -78 40q-31 19 -68 38q-29 15 -36.5 17.5t-26.5 2.5q-37 0 -45 -4t-20.5 -28t-15 -35 t-4.5 -55h-219z" />
<glyph unicode="&#xf2;" horiz-adv-x="1406" d="M88 561q0 155 9 210.5t36 97.5t117.5 130t133.5 114.5t100.5 35.5t218.5 9q163 0 221 -9t101 -35.5t132.5 -115.5t116 -131t35.5 -97t9 -209q0 -73 -1 -104.5t-2 -73t-10.5 -62t-16 -43.5t-30 -47.5t-41.5 -44t-61 -62.5q-89 -88 -132.5 -114.5t-101 -35.5t-219.5 -9 t-219.5 9t-101 35.5t-133 115t-116.5 130.5t-36 97t-9 209zM349 1656v20h351l247 -393h-246zM461 559q0 -69 2 -89t15 -70.5t19 -64t31 -44.5q24 -29 33.5 -36.5t43 -21t46 -15.5t55.5 -2q37 0 48.5 2t45 14.5t43 19.5t32.5 36q26 32 32.5 45t20 58.5t15.5 66.5t2 101 q0 74 -2 95t-16 71q-13 50 -19.5 63.5t-30.5 43.5q-24 31 -33.5 38t-43.5 20t-46 15t-51 2q-29 0 -40 -1t-20.5 -3t-32.5 -10q-30 -11 -39.5 -18t-37.5 -38q-25 -29 -31.5 -42.5t-21 -64.5t-17 -72.5t-2.5 -98.5z" />
<glyph unicode="&#xf3;" horiz-adv-x="1406" d="M88 561q0 155 9 210.5t36 97.5t117.5 130t133.5 114.5t100.5 35.5t218.5 9q163 0 221 -9t101 -35.5t132.5 -115.5t116 -131t35.5 -97t9 -209q0 -73 -1 -104.5t-2 -73t-10.5 -62t-16 -43.5t-30 -47.5t-41.5 -44t-61 -62.5q-89 -88 -132.5 -114.5t-101 -35.5t-219.5 -9 t-219.5 9t-101 35.5t-133 115t-116.5 130.5t-36 97t-9 209zM460 1283l247 393h351v-20l-352 -373h-246zM461 559q0 -69 2 -89t15 -70.5t19 -64t31 -44.5q24 -29 33.5 -36.5t43 -21t46 -15.5t55.5 -2q37 0 48.5 2t45 14.5t43 19.5t32.5 36q26 32 32.5 45t20 58.5t15.5 66.5 t2 101q0 74 -2 95t-16 71q-13 50 -19.5 63.5t-30.5 43.5q-24 31 -33.5 38t-43.5 20t-46 15t-51 2q-29 0 -40 -1t-20.5 -3t-32.5 -10q-30 -11 -39.5 -18t-37.5 -38q-25 -29 -31.5 -42.5t-21 -64.5t-17 -72.5t-2.5 -98.5z" />
<glyph unicode="&#xf4;" horiz-adv-x="1406" d="M88 561q0 155 9 210.5t36 97.5t117.5 130t133.5 114.5t100.5 35.5t218.5 9q163 0 221 -9t101 -35.5t132.5 -115.5t116 -131t35.5 -97t9 -209q0 -73 -1 -104.5t-2 -73t-10.5 -62t-16 -43.5t-30 -47.5t-41.5 -44t-61 -62.5q-89 -88 -132.5 -114.5t-101 -35.5t-219.5 -9 t-219.5 9t-101 35.5t-133 115t-116.5 130.5t-36 97t-9 209zM257 1283l321 393h251l321 -393h-264l-185 219l-184 -219h-260zM461 559q0 -69 2 -89t15 -70.5t19 -64t31 -44.5q24 -29 33.5 -36.5t43 -21t46 -15.5t55.5 -2q37 0 48.5 2t45 14.5t43 19.5t32.5 36q26 32 32.5 45 t20 58.5t15.5 66.5t2 101q0 74 -2 95t-16 71q-13 50 -19.5 63.5t-30.5 43.5q-24 31 -33.5 38t-43.5 20t-46 15t-51 2q-29 0 -40 -1t-20.5 -3t-32.5 -10q-30 -11 -39.5 -18t-37.5 -38q-25 -29 -31.5 -42.5t-21 -64.5t-17 -72.5t-2.5 -98.5z" />
<glyph unicode="&#xf5;" horiz-adv-x="1406" d="M88 561q0 155 9 210.5t36 97.5t117.5 130t133.5 114.5t100.5 35.5t218.5 9q163 0 221 -9t101 -35.5t132.5 -115.5t116 -131t35.5 -97t9 -209q0 -73 -1 -104.5t-2 -73t-10.5 -62t-16 -43.5t-30 -47.5t-41.5 -44t-61 -62.5q-89 -88 -132.5 -114.5t-101 -35.5t-219.5 -9 t-219.5 9t-101 35.5t-133 115t-116.5 130.5t-36 97t-9 209zM260 1280q2 46 2.5 64.5t5 45t7 34.5t14.5 28t21.5 30.5t33.5 38.5q58 68 83 79t117 11q36 0 47.5 -2t43.5 -15q43 -18 79 -39q37 -20 69 -37q24 -14 31.5 -16t27.5 -2q36 0 44 4t22 28t16 35t4 51h219 q-2 -40 -3 -56.5t-4 -42.5t-4 -33.5t-7 -25t-9 -22.5t-13.5 -20.5t-18 -23t-24.5 -26.5q-54 -62 -79.5 -72t-122.5 -10q-35 0 -46.5 2.5t-43.5 15.5q-42 19 -77 40q-31 19 -69 38q-28 15 -35.5 17.5t-26.5 2.5q-37 0 -45 -4t-20.5 -28t-15 -35t-4.5 -55h-219zM461 559 q0 -69 2 -89t15 -70.5t19 -64t31 -44.5q24 -29 33.5 -36.5t43 -21t46 -15.5t55.5 -2q37 0 48.5 2t45 14.5t43 19.5t32.5 36q26 32 32.5 45t20 58.5t15.5 66.5t2 101q0 74 -2 95t-16 71q-13 50 -19.5 63.5t-30.5 43.5q-24 31 -33.5 38t-43.5 20t-46 15t-51 2q-29 0 -40 -1 t-20.5 -3t-32.5 -10q-30 -11 -39.5 -18t-37.5 -38q-25 -29 -31.5 -42.5t-21 -64.5t-17 -72.5t-2.5 -98.5z" />
<glyph unicode="&#xf6;" horiz-adv-x="1406" d="M88 561q0 155 9 210.5t36 97.5t117.5 130t133.5 114.5t100.5 35.5t218.5 9q163 0 221 -9t101 -35.5t132.5 -115.5t116 -131t35.5 -97t9 -209q0 -73 -1 -104.5t-2 -73t-10.5 -62t-16 -43.5t-30 -47.5t-41.5 -44t-61 -62.5q-89 -88 -132.5 -114.5t-101 -35.5t-219.5 -9 t-219.5 9t-101 35.5t-133 115t-116.5 130.5t-36 97t-9 209zM286 1283v273h297v-273h-297zM461 559q0 -69 2 -89t15 -70.5t19 -64t31 -44.5q24 -29 33.5 -36.5t43 -21t46 -15.5t55.5 -2q37 0 48.5 2t45 14.5t43 19.5t32.5 36q26 32 32.5 45t20 58.5t15.5 66.5t2 101 q0 74 -2 95t-16 71q-13 50 -19.5 63.5t-30.5 43.5q-24 31 -33.5 38t-43.5 20t-46 15t-51 2q-29 0 -40 -1t-20.5 -3t-32.5 -10q-30 -11 -39.5 -18t-37.5 -38q-25 -29 -31.5 -42.5t-21 -64.5t-17 -72.5t-2.5 -98.5zM823 1283v273h297v-273h-297z" />
<glyph unicode="&#xf7;" horiz-adv-x="1776" d="M218 528v268h1340v-268h-1340zM718 0v323h340v-323h-340zM718 1001v323h340v-323h-340z" />
<glyph unicode="&#xf8;" horiz-adv-x="1406" d="M88 -162l196 262q-95 80 -145.5 198t-50.5 263q0 279 162.5 438t452.5 159q94 0 172 -18.5t147 -52.5l121 166h175l-182 -242q87 -77 134.5 -192t47.5 -258q0 -277 -161.5 -436.5t-453.5 -159.5q-86 0 -162.5 16.5t-139.5 46.5l-139 -190h-174zM454 559q0 -62 7 -113.5 t18 -89.5l375 509q-30 25 -67.5 36.5t-83.5 11.5q-53 0 -95.5 -14.5t-78.5 -56.5q-34 -38 -54.5 -109t-20.5 -174zM567 247q28 -19 62.5 -28t76.5 -9q49 0 96.5 17.5t78.5 55.5q35 44 53.5 105.5t18.5 170.5q0 49 -5.5 101t-14.5 85z" />
<glyph unicode="&#xf9;" horiz-adv-x="1459" d="M161 392v731h362v-557q0 -85 5 -142q5 -42 8 -53.5t18 -39.5q14 -28 21.5 -34.5t36 -19.5t42 -15t65.5 -2q35 0 47.5 2t54.5 15t55.5 19t52.5 31v796h360v-1123h-360v124q-75 -57 -98 -71.5t-85 -44t-87 -34.5t-111 -5q-103 0 -139.5 6t-64 24t-82.5 77q-27 28 -38 41.5 t-26 30t-19 33.5t-10 31.5t-6.5 45.5t-1 55t-0.5 79zM384 1656v20h351l247 -393h-246z" />
<glyph unicode="&#xfa;" horiz-adv-x="1459" d="M161 392v731h362v-557q0 -85 5 -142q5 -42 8 -53.5t18 -39.5q14 -28 21.5 -34.5t36 -19.5t42 -15t65.5 -2q35 0 47.5 2t54.5 15t55.5 19t52.5 31v796h360v-1123h-360v124q-75 -57 -98 -71.5t-85 -44t-87 -34.5t-111 -5q-103 0 -139.5 6t-64 24t-82.5 77q-27 28 -38 41.5 t-26 30t-19 33.5t-10 31.5t-6.5 45.5t-1 55t-0.5 79zM455 1283l247 393h351v-20l-352 -373h-246z" />
<glyph unicode="&#xfb;" horiz-adv-x="1459" d="M161 392v731h362v-557q0 -85 5 -142q5 -42 8 -53.5t18 -39.5q14 -28 21.5 -34.5t36 -19.5t42 -15t65.5 -2q35 0 47.5 2t54.5 15t55.5 19t52.5 31v796h360v-1123h-360v124q-75 -57 -98 -71.5t-85 -44t-87 -34.5t-111 -5q-103 0 -139.5 6t-64 24t-82.5 77q-27 28 -38 41.5 t-26 30t-19 33.5t-10 31.5t-6.5 45.5t-1 55t-0.5 79zM284 1283l321 393h251l321 -393h-264l-185 219l-184 -219h-260z" />
<glyph unicode="&#xfc;" horiz-adv-x="1459" d="M161 392v731h362v-557q0 -85 5 -142q5 -42 8 -53.5t18 -39.5q14 -28 21.5 -34.5t36 -19.5t42 -15t65.5 -2q35 0 47.5 2t54.5 15t55.5 19t52.5 31v796h360v-1123h-360v124q-75 -57 -98 -71.5t-85 -44t-87 -34.5t-111 -5q-103 0 -139.5 6t-64 24t-82.5 77q-27 28 -38 41.5 t-26 30t-19 33.5t-10 31.5t-6.5 45.5t-1 55t-0.5 79zM309 1283v273h297v-273h-297zM846 1283v273h297v-273h-297z" />
<glyph unicode="&#xfd;" horiz-adv-x="1333" d="M30 1123h378l269 -726l256 726h370l-624 -1535h-390l178 420zM445 1283l247 393h351v-20l-352 -373h-246z" />
<glyph unicode="&#xfe;" horiz-adv-x="1432" d="M170 -412v1968h360v-550q83 66 169.5 107t199.5 41q210 0 326.5 -154t116.5 -423q0 -139 -42.5 -253t-111.5 -188q-72 -78 -163 -118t-195 -40q-96 0 -163 20.5t-137 57.5v-468h-360zM530 257q36 -14 77 -18t81 -4q143 0 213 83.5t70 251.5q0 164 -56 238t-177 74 q-51 0 -105 -15.5t-103 -44.5v-565z" />
<glyph unicode="&#xff;" horiz-adv-x="1333" d="M30 1123h378l269 -726l256 726h370l-624 -1535h-390l178 420zM261 1283v273h297v-273h-297zM798 1283v273h297v-273h-297z" />
<glyph unicode="&#x152;" horiz-adv-x="2325" d="M103 746q0 202 92.5 366t246.5 258q96 60 226.5 89.5t312.5 29.5h1211v-288h-695v-257h645v-288h-645v-368h695v-288h-1172q-160 0 -309 21t-273 96q-157 96 -246 253.5t-89 375.5zM500 743q0 -151 56.5 -254.5t169.5 -160.5q39 -19 84.5 -31t88.5 -15q46 -4 100 -4h118 v932h-127q-47 0 -104 -5q-57 -6 -93.5 -16t-86.5 -37q-102 -57 -154 -160t-52 -249z" />
<glyph unicode="&#x153;" horiz-adv-x="2187" d="M88 561q0 279 162.5 438t452.5 159q133 0 242.5 -39.5t185.5 -105.5q81 66 190 105.5t240 39.5q271 0 406.5 -138.5t135.5 -398.5v-126h-811q5 -79 35.5 -131t79.5 -83t113 -44.5t139 -13.5q111 0 215.5 40t167.5 89h40v-289q-105 -43 -212.5 -68t-249.5 -25 q-157 0 -277.5 38.5t-208.5 104.5q-82 -71 -190 -109.5t-241 -38.5q-289 0 -452 159t-163 437zM461 559q0 -92 17 -159.5t50 -108.5q32 -39 76.5 -57t101.5 -18q49 0 93.5 16.5t75.5 55.5q35 43 52.5 103.5t17.5 167.5q0 99 -18 166t-50 107q-32 41 -77 58t-97 17t-92.5 -14 t-77.5 -56q-33 -39 -52.5 -107t-19.5 -171zM1291 706h454q-3 111 -54.5 169t-160.5 58q-101 0 -166 -54t-73 -173z" />
<glyph unicode="&#x178;" horiz-adv-x="1509" d="M9 1489h436l322 -576l311 576h422l-549 -913v-576h-384v558zM341 1656v273h297v-273h-297zM878 1656v273h297v-273h-297z" />
<glyph unicode="&#x2000;" horiz-adv-x="1024" />
<glyph unicode="&#x2001;" horiz-adv-x="2049" />
<glyph unicode="&#x2002;" horiz-adv-x="1024" />
<glyph unicode="&#x2003;" horiz-adv-x="2049" />
<glyph unicode="&#x2004;" horiz-adv-x="683" />
<glyph unicode="&#x2005;" horiz-adv-x="512" />
<glyph unicode="&#x2006;" horiz-adv-x="341" />
<glyph unicode="&#x2007;" horiz-adv-x="341" />
<glyph unicode="&#x2008;" horiz-adv-x="256" />
<glyph unicode="&#x2009;" horiz-adv-x="409" />
<glyph unicode="&#x200a;" horiz-adv-x="113" />
<glyph unicode="&#x2010;" horiz-adv-x="983" d="M110 518v288h763v-288h-763z" />
<glyph unicode="&#x2011;" horiz-adv-x="983" d="M110 518v288h763v-288h-763z" />
<glyph unicode="&#x2012;" horiz-adv-x="983" d="M110 518v288h763v-288h-763z" />
<glyph unicode="&#x2013;" horiz-adv-x="1244" d="M110 518v288h1024v-288h-1024z" />
<glyph unicode="&#x2014;" horiz-adv-x="2268" d="M110 518v288h2048v-288h-2048z" />
<glyph unicode="&#x2018;" horiz-adv-x="680" d="M32 1556h368l157 -589h-234z" />
<glyph unicode="&#x2019;" horiz-adv-x="680" d="M123 967l157 589h368l-291 -589h-234z" />
<glyph unicode="&#x201a;" horiz-adv-x="680" d="M53 -196l157 589h368l-291 -589h-234z" />
<glyph unicode="&#x201c;" horiz-adv-x="1203" d="M11 1556h368l157 -589h-234zM555 1556h368l157 -589h-234z" />
<glyph unicode="&#x201d;" horiz-adv-x="1203" d="M123 967l157 589h368l-291 -589h-234zM667 967l157 589h368l-291 -589h-234z" />
<glyph unicode="&#x201e;" horiz-adv-x="1203" d="M53 -196l157 589h368l-291 -589h-234zM597 -196l157 589h368l-291 -589h-234z" />
<glyph unicode="&#x202f;" horiz-adv-x="409" />
<glyph unicode="&#x205f;" horiz-adv-x="512" />
<glyph unicode="&#x20ac;" d="M0 527l48 134h58q-1 20 -2 40.5t-1 41.5q0 24 1 47.5t3 46.5h-107l48 134h79q58 255 245.5 401t475.5 146q163 0 281.5 -32t238.5 -92v-361h-44q-88 87 -190.5 142.5t-226.5 55.5q-125 0 -225.5 -69.5t-144.5 -190.5h295l-48 -134h-277q-2 -22 -3.5 -46.5t-1.5 -48.5 q0 -21 1 -41.5t3 -39.5h213l-48 -134h-138q41 -122 139.5 -195.5t236.5 -73.5q124 0 233 55t186 142h40v-356q-147 -71 -258.5 -99.5t-262.5 -28.5q-293 0 -480.5 146.5t-242.5 409.5h-124z" />
<glyph unicode="&#x2122;" horiz-adv-x="1974" d="M142 1332v157h609v-157h-207v-567h-195v567h-207zM866 765v724h315l146 -354l152 354h306v-724h-194v566h-21l-178 -396h-136l-180 403h-26v-573h-184z" />
<glyph unicode="&#x25fc;" horiz-adv-x="1125" d="M0 0v1125h1125v-1125h-1125z" />
</font>
</defs>
</svg>
